<?xml version="1.0" encoding="UTF-8"?>
<svg xmlns="http://www.w3.org/2000/svg" xmlns:xlink="http://www.w3.org/1999/xlink" width="1026px" height="348px" viewBox="0 0 1026 348" version="1.1">
<g id="surface1">
<path style=" stroke:none;fill-rule:nonzero;fill:rgb(27.450982%,58.039218%,81.568629%);fill-opacity:1;" d="M 255.125 119.726562 C 256.269531 119.726562 257.417969 119.726562 258.5625 119.726562 C 261.425781 119.761719 264.402344 119.761719 267.265625 119.792969 C 270.355469 119.828125 273.332031 119.828125 276.308594 119.863281 C 282.148438 119.863281 287.988281 119.929688 293.945312 119.964844 C 293.945312 120.203125 293.945312 120.40625 293.945312 120.644531 C 293.144531 121.050781 292.339844 121.425781 291.539062 121.832031 C 289.707031 122.820312 288.21875 123.976562 286.730469 125.097656 C 285.929688 125.640625 285.242188 126.148438 284.554688 126.660156 C 283.980469 127.035156 283.980469 127.035156 283.523438 127.441406 C 282.378906 128.292969 281.121094 129.140625 279.972656 129.957031 C 270.355469 136.652344 260.964844 143.378906 251.804688 150.210938 C 252.148438 150.210938 252.605469 150.210938 252.949219 150.210938 C 259.132812 150.144531 265.316406 150.378906 271.5 150.617188 C 273.332031 150.6875 275.28125 150.753906 277.226562 150.824219 C 278.484375 150.855469 279.628906 150.890625 280.890625 150.925781 C 281.464844 150.957031 282.035156 150.992188 282.609375 150.992188 C 285.929688 151.128906 288.792969 151.402344 291.882812 151.910156 C 290.851562 153.234375 289.136719 154.050781 287.1875 155.070312 C 286.84375 155.242188 286.5 155.410156 286.15625 155.582031 C 285.011719 156.160156 283.867188 156.734375 282.722656 157.3125 C 281.921875 157.722656 281.121094 158.128906 280.316406 158.535156 C 278.257812 159.589844 276.082031 160.644531 274.019531 161.699219 C 270.699219 163.398438 267.378906 165.097656 263.941406 166.796875 C 262.796875 167.371094 261.652344 167.949219 260.507812 168.5625 C 257.1875 170.195312 253.980469 171.859375 251.003906 173.660156 C 248.714844 174.984375 246.195312 176.242188 243.675781 177.5 C 242.644531 178.011719 241.613281 178.519531 240.582031 179.0625 C 238.0625 180.320312 235.542969 181.613281 233.027344 182.871094 C 230.851562 183.957031 228.789062 185.042969 226.613281 186.132812 C 225.582031 186.640625 224.667969 187.152344 223.636719 187.628906 C 220.542969 189.191406 217.566406 190.753906 214.820312 192.417969 C 212.300781 193.914062 209.550781 195.34375 206.917969 196.734375 C 206.117188 197.109375 205.429688 197.484375 204.742188 197.890625 C 198.902344 201.085938 198.902344 201.085938 195.925781 201.355469 C 194.207031 201.253906 194.207031 201.253906 191.6875 200.847656 C 193.292969 198.300781 195.238281 195.917969 197.527344 193.507812 C 197.871094 193.132812 198.214844 192.726562 198.558594 192.316406 C 201.078125 189.632812 203.597656 186.980469 206.230469 184.332031 C 208.0625 182.496094 209.894531 180.628906 211.726562 178.792969 C 211.957031 178.589844 212.183594 178.351562 212.414062 178.144531 C 215.046875 175.460938 217.566406 172.777344 220.085938 170.058594 C 221.117188 168.867188 222.261719 167.746094 223.519531 166.625 C 223.863281 166.355469 224.09375 166.082031 224.4375 165.777344 C 224.78125 165.46875 224.78125 165.46875 225.125 165.164062 C 224.667969 165.164062 224.324219 165.128906 223.863281 165.128906 C 219.511719 164.960938 215.277344 164.789062 211.039062 164.621094 C 209.4375 164.550781 207.832031 164.484375 206.230469 164.449219 C 203.824219 164.347656 201.535156 164.246094 199.246094 164.179688 C 198.558594 164.144531 197.871094 164.109375 197.070312 164.078125 C 196.152344 164.042969 196.152344 164.042969 195.125 164.007812 C 194.207031 163.972656 194.207031 163.972656 193.292969 163.941406 C 191.6875 163.804688 190.429688 163.53125 189.054688 163.125 C 189.398438 161.765625 190.199219 160.949219 191.800781 159.863281 C 194.320312 158.0625 196.726562 156.191406 199.015625 154.289062 C 202.679688 151.367188 206.460938 148.445312 210.125 145.519531 C 211.726562 144.296875 213.214844 143.074219 214.820312 141.816406 C 215.164062 141.578125 215.390625 141.339844 215.734375 141.101562 C 217.453125 139.777344 219.171875 138.453125 220.773438 137.09375 C 222.949219 135.394531 225.125 133.660156 227.414062 131.960938 C 227.757812 131.65625 228.214844 131.316406 228.675781 130.976562 C 229.589844 130.296875 230.621094 129.753906 231.765625 129.140625 C 232.796875 128.257812 232.796875 128.257812 233.710938 127.375 C 234.515625 126.761719 234.515625 126.761719 235.429688 126.082031 C 236.804688 125.199219 237.71875 124.214844 238.75 123.191406 C 239.09375 122.921875 239.4375 122.648438 239.78125 122.34375 C 240.011719 122.140625 240.238281 121.9375 240.355469 121.730469 C 243.675781 119.082031 249.742188 119.660156 255.125 119.726562 Z M 255.125 119.726562 "/>
<path style=" stroke:none;fill-rule:nonzero;fill:rgb(18.039216%,58.039218%,79.607844%);fill-opacity:1;" d="M 509.679688 152.929688 C 510.367188 153.167969 511.054688 153.441406 511.742188 153.675781 C 517.695312 156.601562 519.757812 160.238281 519.984375 164.316406 C 519.757812 168.730469 517.121094 172.234375 511.054688 175.496094 C 504.984375 178.453125 497.082031 179.199219 488.839844 179.164062 C 482.3125 178.960938 476.472656 178.011719 471.546875 175.699219 C 471.546875 175.460938 471.546875 175.257812 471.546875 175.019531 C 471.089844 175.019531 470.746094 175.019531 470.289062 175.019531 C 470.289062 179.84375 470.289062 184.671875 470.289062 189.632812 C 464.90625 189.632812 459.640625 189.632812 454.257812 189.632812 C 454.257812 176.71875 454.257812 163.839844 454.257812 150.550781 C 459.523438 150.550781 464.792969 150.550781 470.289062 150.550781 C 470.515625 151.773438 470.746094 153.03125 470.859375 154.289062 C 471.320312 153.984375 471.664062 153.710938 472.121094 153.40625 C 481.167969 147.796875 499.601562 149.089844 509.679688 152.929688 Z M 509.679688 152.929688 "/>
<path style=" stroke:none;fill-rule:nonzero;fill:rgb(19.215687%,48.235294%,76.862746%);fill-opacity:1;" d="M 581.019531 152.25 C 588.003906 155.273438 591.210938 158.433594 592.011719 163.058594 C 592.355469 167.238281 591.09375 171.316406 585.597656 174.578125 C 584.566406 175.085938 583.539062 175.5625 582.507812 176.039062 C 582.050781 176.207031 581.707031 176.378906 581.363281 176.582031 C 574.835938 179.269531 566.476562 179.4375 558.574219 179.164062 C 552.277344 178.824219 548.269531 177.195312 543 175.359375 C 543 180.082031 543 184.773438 543 189.632812 C 537.734375 189.632812 532.464844 189.632812 526.96875 189.632812 C 526.96875 176.617188 526.96875 163.601562 526.96875 150.210938 C 532.351562 150.210938 537.621094 150.210938 543 150.210938 C 543.230469 151.570312 543.460938 152.894531 543.6875 154.289062 C 544.144531 153.984375 544.488281 153.710938 544.949219 153.40625 C 553.308594 148.273438 571.171875 148.714844 581.019531 152.25 Z M 581.019531 152.25 "/>
<path style=" stroke:none;fill-rule:nonzero;fill:rgb(12.54902%,67.843139%,81.568629%);fill-opacity:1;" d="M 310.546875 136.957031 C 333.566406 136.957031 356.464844 136.957031 380.054688 136.957031 C 380.054688 144.09375 380.054688 144.09375 377.421875 145.828125 C 376.277344 146.269531 375.246094 146.710938 374.101562 147.152344 C 373.070312 147.765625 372.039062 148.339844 371.125 148.988281 C 368.488281 150.617188 365.742188 152.214844 362.878906 153.777344 C 359.101562 155.851562 355.550781 158.027344 351.886719 160.203125 C 350.054688 161.253906 348.335938 162.34375 346.503906 163.398438 C 345.929688 163.738281 345.929688 163.738281 345.359375 164.042969 C 344.671875 164.449219 343.984375 164.859375 343.296875 165.265625 C 339.863281 167.238281 336.65625 169.277344 333.335938 171.28125 C 349.023438 171.382812 364.597656 171.519531 380.742188 171.621094 C 380.742188 173.863281 380.742188 176.105469 380.742188 178.417969 C 357.152344 178.417969 333.566406 178.417969 309.289062 178.417969 C 309.289062 171.621094 309.289062 171.621094 312.609375 169.308594 C 313.984375 168.730469 315.242188 168.121094 316.617188 167.542969 C 317.417969 167.101562 318.21875 166.660156 318.90625 166.21875 C 319.480469 165.878906 319.480469 165.878906 320.050781 165.570312 C 322 164.449219 323.832031 163.292969 325.664062 162.171875 C 331.160156 158.878906 336.65625 155.648438 342.382812 152.488281 C 347.078125 149.871094 351.542969 147.152344 356.007812 144.433594 C 333.566406 144.261719 333.566406 144.261719 310.546875 144.09375 C 310.546875 141.75 310.546875 139.371094 310.546875 136.957031 Z M 310.546875 136.957031 "/>
<path style=" stroke:none;fill-rule:nonzero;fill:rgb(22.745098%,29.411766%,63.921571%);fill-opacity:1;" d="M 790.339844 152.65625 C 794.578125 154.5625 796.636719 156.941406 797.554688 159.726562 C 797.785156 161.1875 797.667969 162.683594 797.667969 164.144531 C 797.667969 164.585938 797.667969 164.996094 797.667969 165.4375 C 797.667969 166.761719 797.667969 168.085938 797.667969 169.410156 C 797.667969 170.328125 797.667969 171.214844 797.667969 172.128906 C 797.554688 174.339844 797.554688 176.550781 797.554688 178.757812 C 792.289062 178.757812 787.019531 178.757812 781.523438 178.757812 C 781.292969 177.535156 781.066406 176.277344 780.835938 175.019531 C 780.148438 175.394531 779.460938 175.734375 778.660156 176.105469 C 772.25 179.03125 763.085938 179.371094 754.84375 179.097656 C 749.460938 178.589844 744.878906 177.535156 741.558594 175.292969 C 738.582031 172.914062 738.355469 170.566406 739.5 167.882812 C 740.757812 165.605469 743.390625 164.28125 747.515625 163.125 C 757.820312 160.574219 769.613281 160.984375 780.835938 161.085938 C 780.722656 160.574219 780.722656 160.101562 780.605469 159.625 C 780.492188 159.183594 780.492188 159.183594 780.492188 158.773438 C 780.265625 157.960938 780.265625 157.960938 779.003906 157.210938 C 775.339844 155.886719 771.90625 155.886719 767.554688 155.886719 C 766.980469 155.886719 766.410156 155.886719 765.722656 155.851562 C 762.285156 155.851562 759.765625 156.023438 756.789062 157.007812 C 756.332031 157.246094 755.988281 157.519531 755.53125 157.753906 C 754.15625 158.367188 754.15625 158.367188 752.09375 158.332031 C 751.179688 158.230469 750.378906 158.128906 749.460938 158.027344 C 748.203125 157.925781 746.828125 157.789062 745.566406 157.6875 C 742.246094 157.382812 742.246094 157.382812 741.445312 157.007812 C 740.871094 155.921875 740.757812 155.035156 741.445312 153.949219 C 752.550781 148.238281 777.859375 148.171875 790.339844 152.65625 Z M 790.339844 152.65625 "/>
<path style=" stroke:none;fill-rule:nonzero;fill:rgb(14.901961%,65.882355%,81.176472%);fill-opacity:1;" d="M 415.667969 149.804688 C 416.355469 149.804688 417.15625 149.804688 417.84375 149.804688 C 425.746094 149.804688 432.5 150.449219 438.683594 153.03125 C 442.117188 155.136719 444.292969 156.941406 444.292969 159.691406 C 444.292969 160.339844 444.292969 160.339844 444.292969 160.949219 C 444.292969 161.425781 444.292969 161.867188 444.292969 162.308594 C 444.292969 162.785156 444.292969 163.261719 444.292969 163.703125 C 444.292969 164.925781 444.292969 166.148438 444.292969 167.371094 C 444.292969 168.597656 444.179688 169.855469 444.179688 171.113281 C 444.179688 173.523438 444.179688 175.972656 444.179688 178.417969 C 439.371094 178.417969 434.445312 178.417969 429.523438 178.417969 C 429.523438 177.195312 429.523438 175.9375 429.523438 174.679688 C 429.066406 174.679688 428.605469 174.679688 428.148438 174.679688 C 427.804688 175.191406 427.804688 175.191406 427.460938 175.699219 C 421.964844 178.417969 413.722656 179.164062 406.277344 179.269531 C 399.863281 179.164062 394.597656 178.316406 389.902344 176.003906 C 386.8125 174.238281 385.550781 172.503906 385.78125 170.125 C 386.582031 167.371094 388.300781 165.332031 392.765625 163.601562 C 400.894531 160.847656 411.546875 161.019531 420.933594 161.050781 C 422.078125 161.050781 422.078125 161.050781 423.226562 161.085938 C 425.171875 161.085938 427.003906 161.085938 428.835938 161.085938 C 428.605469 160.542969 428.492188 160 428.261719 159.453125 C 428.148438 158.980469 428.148438 158.980469 427.917969 158.503906 C 427.578125 157.621094 427.578125 157.621094 425.972656 156.839844 C 420.707031 155.34375 414.867188 155.273438 409.027344 155.816406 C 406.277344 156.226562 405.019531 156.496094 403.1875 157.621094 C 401.46875 158.367188 401.46875 158.367188 399.75 158.332031 C 397.804688 158.164062 395.972656 157.960938 394.140625 157.6875 C 393.566406 157.621094 393.109375 157.550781 392.535156 157.484375 C 391.507812 157.347656 390.476562 157.175781 389.445312 157.007812 C 388.988281 155.921875 388.871094 155.035156 389.445312 153.949219 C 395.855469 150.277344 406.621094 149.804688 415.667969 149.804688 Z M 415.667969 149.804688 "/>
<path style=" stroke:none;fill-rule:nonzero;fill:rgb(20.784314%,40.000001%,72.941178%);fill-opacity:1;" d="M 648.578125 152.691406 C 655.21875 155.546875 657.625 158.46875 658.65625 162.785156 C 658.65625 164.246094 658.65625 165.707031 658.65625 167.203125 C 643.882812 167.203125 629.113281 167.203125 613.882812 167.203125 C 615.257812 169.308594 616.402344 170.90625 620.179688 172.0625 C 625.105469 173.253906 631.171875 173.457031 636.554688 172.707031 C 638.84375 172.234375 640.90625 171.722656 643.082031 171.007812 C 645.257812 170.433594 646.289062 170.601562 648.578125 170.941406 C 650.867188 171.382812 653.042969 171.824219 655.21875 172.300781 C 655.679688 173.386719 655.792969 173.964844 655.21875 175.019531 C 650.753906 177.703125 642.738281 178.859375 635.984375 179.199219 C 623.617188 179.539062 613.996094 179.03125 604.492188 174.746094 C 598.882812 171.824219 597.507812 168.394531 597.507812 164.417969 C 597.394531 164.109375 597.394531 163.804688 597.394531 163.464844 C 597.507812 159.625 600.597656 156.566406 605.980469 153.882812 C 617.203125 148.714844 636.097656 148.070312 648.578125 152.691406 Z M 648.578125 152.691406 "/>
<path style=" stroke:none;fill-rule:nonzero;fill:rgb(22.745098%,36.470589%,70.19608%);fill-opacity:1;" d="M 706.75 149.871094 C 707.550781 150.109375 708.464844 150.3125 709.382812 150.550781 C 709.382812 153.03125 709.382812 155.480469 709.382812 158.027344 C 707.207031 157.925781 704.917969 157.789062 702.742188 157.6875 C 697.015625 157.449219 692.777344 157.6875 687.96875 159.386719 C 685.335938 160.8125 683.847656 162.105469 683.734375 164.109375 C 683.734375 164.417969 683.734375 164.757812 683.734375 165.097656 C 683.734375 165.605469 683.734375 165.605469 683.734375 166.148438 C 683.734375 166.523438 683.734375 166.863281 683.734375 167.238281 C 683.617188 168.394531 683.617188 169.546875 683.617188 170.667969 C 683.503906 171.449219 683.503906 172.234375 683.503906 173.015625 C 683.390625 174.953125 683.390625 176.855469 683.273438 178.757812 C 677.777344 178.757812 672.28125 178.757812 666.671875 178.757812 C 666.671875 169.34375 666.671875 159.929688 666.671875 150.210938 C 671.9375 150.210938 677.207031 150.210938 682.703125 150.210938 C 682.703125 152.113281 682.703125 154.015625 682.703125 155.988281 C 683.160156 155.988281 683.503906 155.988281 683.960938 155.988281 C 684.078125 155.75 684.191406 155.511719 684.417969 155.273438 C 686.710938 152.792969 691.0625 151.402344 695.871094 150.246094 C 699.421875 149.632812 702.96875 149.597656 706.75 149.871094 Z M 706.75 149.871094 "/>
<path style=" stroke:none;fill-rule:nonzero;fill:rgb(24.705882%,27.058825%,60.392159%);fill-opacity:1;" d="M 806.257812 150.210938 C 811.753906 150.210938 817.25 150.210938 822.976562 150.210938 C 822.976562 159.625 822.976562 169.039062 822.976562 178.757812 C 817.480469 178.757812 811.867188 178.757812 806.257812 178.757812 C 806.257812 169.34375 806.257812 159.929688 806.257812 150.210938 Z M 806.257812 150.210938 "/>
<path style=" stroke:none;fill-rule:nonzero;fill:rgb(98.039216%,98.823529%,99.215686%);fill-opacity:1;" d="M 567.851562 156.703125 C 571.628906 157.960938 574.375 159.558594 575.75 161.765625 C 576.4375 164.757812 575.980469 168.222656 572.316406 170.738281 C 568.308594 172.605469 563.269531 173.457031 557.773438 173.320312 C 553.078125 173.046875 549.757812 172.265625 546.4375 170.601562 C 543 168.324219 541.742188 165.605469 542.429688 162.785156 C 543.460938 160.269531 546.4375 158.46875 550.214844 156.871094 C 555.140625 155.308594 562.695312 155.34375 567.851562 156.703125 Z M 567.851562 156.703125 "/>
<path style=" stroke:none;fill-rule:nonzero;fill:rgb(98.431373%,98.823529%,99.215686%);fill-opacity:1;" d="M 496.167969 157.144531 C 499.488281 158.367188 501.777344 159.761719 502.921875 161.765625 C 503.496094 164.722656 503.496094 167.679688 500.289062 170.261719 C 497.3125 171.996094 494.21875 172.878906 489.753906 173.117188 C 483.6875 173.21875 478.992188 173.117188 474.296875 170.941406 C 469.714844 168.394531 469.832031 165.675781 470.171875 162.445312 C 470.515625 160.441406 472.347656 159.25 475.097656 157.925781 C 481.511719 155.445312 489.183594 155.105469 496.167969 157.144531 Z M 496.167969 157.144531 "/>
<path style=" stroke:none;fill-rule:nonzero;fill:rgb(19.215687%,26.666668%,57.647061%);fill-opacity:1;" d="M 285.242188 151.570312 C 287.417969 151.671875 289.59375 151.808594 291.882812 151.910156 C 290.507812 153.269531 289.25 153.984375 287.1875 155.070312 C 286.617188 155.34375 286.617188 155.34375 286.15625 155.582031 C 285.011719 156.160156 283.867188 156.734375 282.722656 157.3125 C 281.921875 157.722656 281.121094 158.128906 280.316406 158.535156 C 278.257812 159.589844 276.082031 160.644531 274.019531 161.699219 C 270.699219 163.398438 267.378906 165.097656 263.941406 166.796875 C 262.796875 167.371094 261.652344 167.949219 260.507812 168.5625 C 257.1875 170.195312 253.980469 171.859375 251.003906 173.660156 C 248.714844 174.984375 246.195312 176.242188 243.675781 177.5 C 242.644531 178.011719 241.613281 178.519531 240.582031 179.0625 C 238.0625 180.320312 235.542969 181.613281 233.027344 182.871094 C 230.851562 183.957031 228.789062 185.042969 226.613281 186.132812 C 225.582031 186.640625 224.667969 187.152344 223.636719 187.628906 C 220.542969 189.191406 217.566406 190.753906 214.820312 192.417969 C 212.300781 193.914062 209.550781 195.34375 206.917969 196.734375 C 206.117188 197.109375 205.429688 197.484375 204.742188 197.890625 C 198.902344 201.085938 198.902344 201.085938 195.925781 201.355469 C 194.207031 201.253906 194.207031 201.253906 191.6875 200.847656 C 193.292969 198.300781 195.238281 195.917969 197.527344 193.507812 C 197.871094 193.132812 198.214844 192.726562 198.558594 192.316406 C 201.078125 189.632812 203.597656 186.980469 206.230469 184.363281 C 207.949219 182.632812 209.664062 180.863281 211.382812 179.132812 C 212.070312 178.484375 212.644531 177.839844 213.332031 177.195312 C 213.671875 176.785156 214.132812 176.414062 214.476562 176.003906 C 215.046875 175.460938 215.046875 175.460938 215.621094 174.917969 C 216.421875 174 216.421875 174 217.109375 172.980469 C 217.566406 172.980469 218.023438 172.980469 218.367188 172.980469 C 218.023438 174 217.339844 174.882812 216.421875 175.835938 C 216.191406 176.140625 215.847656 176.414062 215.621094 176.71875 C 215.277344 177.023438 215.046875 177.332031 214.703125 177.671875 C 214.359375 177.976562 214.132812 178.28125 213.789062 178.621094 C 211.839844 180.730469 209.78125 182.800781 207.71875 184.875 C 204.972656 187.695312 202.335938 190.515625 199.703125 193.371094 C 199.359375 193.746094 199.015625 194.152344 198.671875 194.527344 C 197.300781 196.054688 196.039062 197.550781 195.007812 199.148438 C 194.550781 199.488281 194.207031 199.828125 193.75 200.167969 C 195.582031 199.964844 196.269531 199.863281 197.757812 199.148438 C 197.527344 198.910156 197.300781 198.707031 197.070312 198.46875 C 197.527344 198.300781 197.984375 198.128906 198.445312 197.957031 C 200.503906 197.074219 202.109375 196.125 203.824219 195.070312 C 205.085938 194.390625 205.085938 194.390625 206.6875 193.746094 C 208.519531 192.996094 209.664062 192.25 211.039062 191.367188 C 213.789062 189.597656 216.878906 188.035156 219.972656 186.4375 C 222.375 185.25 224.667969 184.027344 226.84375 182.699219 C 228.214844 181.917969 229.703125 181.203125 231.078125 180.457031 C 231.652344 180.117188 232.222656 179.777344 232.796875 179.402344 C 234.285156 178.484375 235.886719 177.804688 237.835938 177.058594 C 238.0625 176.820312 238.292969 176.617188 238.40625 176.378906 C 238.867188 176.378906 239.324219 176.378906 239.78125 176.378906 C 240.011719 176.175781 240.125 175.972656 240.355469 175.765625 C 241.957031 174.203125 244.476562 172.945312 247.109375 171.824219 C 248.714844 171.113281 249.972656 170.5 251.347656 169.683594 C 253.636719 168.324219 256.15625 167.035156 258.675781 165.742188 C 259.25 165.4375 259.25 165.4375 259.933594 165.097656 C 261.308594 164.382812 262.683594 163.703125 264.058594 162.988281 C 265.890625 162.070312 267.722656 161.152344 269.554688 160.238281 C 270.011719 160.03125 270.46875 159.792969 270.8125 159.589844 C 272.988281 158.570312 272.988281 158.570312 274.476562 157.347656 C 274.9375 157.347656 275.394531 157.347656 275.851562 157.347656 C 276.082031 157.042969 276.082031 157.042969 276.425781 156.734375 C 277.339844 155.886719 278.257812 155.445312 279.746094 154.832031 C 282.148438 153.847656 283.636719 152.894531 285.242188 151.570312 Z M 285.242188 151.570312 "/>
<path style=" stroke:none;fill-rule:nonzero;fill:rgb(96.862745%,98.431373%,98.823529%);fill-opacity:1;" d="M 422.195312 165.808594 C 422.882812 165.808594 423.453125 165.808594 424.140625 165.84375 C 425.746094 165.84375 427.234375 165.84375 428.835938 165.84375 C 429.179688 167.78125 429.410156 169.445312 427.234375 171.078125 C 424.027344 172.980469 418.757812 173.863281 413.949219 174.066406 C 409.714844 174.101562 406.851562 173.863281 403.53125 172.472656 C 402.269531 171.621094 402.039062 170.839844 401.8125 169.785156 C 402.15625 168.5625 402.15625 168.5625 403.988281 167.609375 C 409.714844 165.640625 415.4375 165.777344 422.195312 165.808594 Z M 422.195312 165.808594 "/>
<path style=" stroke:none;fill-rule:nonzero;fill:rgb(96.862745%,96.862745%,98.039216%);fill-opacity:1;" d="M 770.300781 165.808594 C 770.988281 165.808594 771.5625 165.808594 772.25 165.808594 C 772.933594 165.808594 773.621094 165.808594 774.308594 165.808594 C 775.339844 165.808594 775.339844 165.808594 776.484375 165.84375 C 778.089844 165.84375 779.804688 165.84375 781.523438 165.84375 C 781.523438 166.320312 781.523438 166.828125 781.523438 167.304688 C 781.636719 167.714844 781.636719 167.714844 781.636719 168.121094 C 781.410156 169.683594 779.921875 170.667969 778.089844 171.859375 C 773.851562 173.59375 768.582031 174.136719 763.203125 174.101562 C 760.566406 173.933594 758.277344 173.457031 756.101562 172.640625 C 754.5 171.382812 754.386719 170.363281 754.84375 168.902344 C 755.875 167.78125 756.789062 167.339844 759.078125 166.898438 C 760.796875 166.625 762.402344 166.386719 764.117188 166.183594 C 764.574219 166.117188 764.917969 166.082031 765.378906 166.011719 C 767.09375 165.808594 768.582031 165.808594 770.300781 165.808594 Z M 770.300781 165.808594 "/>
<path style=" stroke:none;fill-rule:nonzero;fill:rgb(22.745098%,58.431375%,71.372551%);fill-opacity:1;" d="M 289.25 120.238281 C 290.507812 120.269531 291.882812 120.269531 293.257812 120.304688 C 288.675781 123.90625 283.636719 127.339844 278.714844 130.804688 C 273.21875 134.613281 267.835938 138.453125 262.570312 142.328125 C 260.164062 144.058594 257.757812 145.792969 255.355469 147.527344 C 255.011719 147.730469 254.78125 147.933594 254.554688 148.136719 C 253.410156 148.886719 252.492188 149.566406 251.117188 150.210938 C 249.402344 150.3125 247.566406 150.246094 245.851562 150.210938 C 246.421875 148.886719 247.339844 148.003906 249.058594 147.015625 C 251.460938 145.726562 253.410156 144.296875 255.355469 142.835938 C 257.875 140.96875 260.507812 139.132812 263.257812 137.332031 C 265.660156 135.734375 267.949219 134.101562 270.125 132.402344 C 286.15625 120.40625 286.15625 120.40625 289.25 120.238281 Z M 289.25 120.238281 "/>
<path style=" stroke:none;fill-rule:nonzero;fill:rgb(96.862745%,97.647059%,98.431373%);fill-opacity:1;" d="M 636.441406 155.921875 C 639.53125 156.839844 641.9375 158.332031 643.195312 160.066406 C 643.195312 160.746094 643.195312 161.425781 643.195312 162.105469 C 633.578125 162.105469 623.84375 162.105469 613.882812 162.105469 C 614.570312 159.625 615.257812 158.570312 618.921875 156.941406 C 623.730469 155.171875 630.601562 155.035156 636.441406 155.921875 Z M 636.441406 155.921875 "/>
<path style=" stroke:none;fill-rule:nonzero;fill:rgb(18.431373%,33.725491%,56.470591%);fill-opacity:1;" d="M 190.3125 162.785156 C 192.144531 162.785156 193.863281 162.785156 195.582031 162.75 C 196.382812 162.75 196.382812 162.75 197.070312 162.75 C 200.277344 162.75 203.480469 162.851562 206.6875 163.023438 C 210.351562 163.226562 214.132812 163.261719 217.796875 163.328125 C 221.003906 163.398438 223.980469 163.5 227.070312 163.804688 C 226.84375 164.347656 226.613281 164.925781 226.5 165.503906 C 226.15625 165.164062 226.15625 165.164062 225.8125 164.824219 C 225.125 164.824219 224.550781 164.824219 223.863281 164.824219 C 217.339844 164.859375 210.925781 164.722656 204.398438 164.449219 C 202.796875 164.382812 201.191406 164.316406 199.589844 164.246094 C 198.558594 164.210938 197.640625 164.179688 196.613281 164.109375 C 195.925781 164.109375 195.925781 164.109375 195.125 164.078125 C 193.863281 164.007812 193.863281 164.007812 191.6875 163.804688 C 191.230469 163.464844 190.773438 163.125 190.3125 162.785156 Z M 190.3125 162.785156 "/>
<path style=" stroke:none;fill-rule:nonzero;fill:rgb(17.254902%,30.19608%,52.941179%);fill-opacity:1;" d="M 190.3125 162.785156 C 196.382812 162.75 202.335938 162.75 208.40625 163.125 C 208.40625 163.363281 208.40625 163.566406 208.40625 163.804688 C 209.78125 163.804688 211.039062 163.804688 212.414062 163.804688 C 212.414062 163.90625 212.414062 164.042969 212.414062 164.144531 C 195.238281 164.210938 195.238281 164.210938 191.6875 163.804688 C 191.230469 163.464844 190.773438 163.125 190.3125 162.785156 Z M 190.3125 162.785156 "/>
<path style=" stroke:none;fill-rule:nonzero;fill:rgb(18.039216%,16.078432%,42.745098%);fill-opacity:1;" d="M 196.382812 195.410156 C 197.183594 196.703125 196.726562 197.210938 195.695312 198.46875 C 195.125 199.046875 194.4375 199.625 193.75 200.167969 C 196.957031 200.066406 198.445312 199.285156 200.734375 198.230469 C 201.765625 197.789062 201.765625 197.789062 203.023438 197.789062 C 201.992188 199.183594 200.277344 200.40625 197.757812 201.1875 C 195.582031 201.253906 193.75 201.085938 191.6875 200.847656 C 192.832031 198.875 194.207031 197.175781 196.382812 195.410156 Z M 196.382812 195.410156 "/>
<path style=" stroke:none;fill-rule:nonzero;fill:rgb(32.941177%,69.01961%,83.529413%);fill-opacity:1;" d="M 526.96875 150.210938 C 532.351562 150.210938 537.621094 150.210938 543 150.210938 C 543.230469 151.570312 543.460938 152.894531 543.6875 154.289062 C 544.488281 153.8125 544.488281 153.8125 545.175781 153.304688 C 546.78125 152.351562 548.039062 151.910156 550.445312 151.570312 C 550.445312 152.25 550.445312 152.25 549.300781 152.828125 C 548.839844 153.03125 548.382812 153.234375 547.925781 153.472656 C 547.46875 153.675781 547.007812 153.882812 546.4375 154.085938 C 545.0625 154.628906 544.144531 154.832031 542.429688 154.96875 C 541.742188 154.289062 541.742188 154.289062 541.054688 150.890625 C 536.472656 150.789062 531.78125 150.652344 526.96875 150.550781 C 526.96875 150.449219 526.96875 150.3125 526.96875 150.210938 Z M 526.96875 150.210938 "/>
<path style=" stroke:none;fill-rule:nonzero;fill:rgb(19.607843%,17.254902%,50.588238%);fill-opacity:1;" d="M 219.742188 186.574219 C 219.972656 186.8125 220.199219 187.015625 220.429688 187.253906 C 217.109375 189.292969 213.445312 191.160156 209.78125 193.03125 C 209.78125 191.773438 210.238281 191.605469 211.957031 190.71875 C 212.414062 190.480469 212.871094 190.246094 213.332031 189.972656 C 213.789062 189.734375 214.246094 189.496094 214.703125 189.226562 C 215.503906 188.851562 215.503906 188.851562 216.191406 188.441406 C 217.339844 187.832031 218.597656 187.1875 219.742188 186.574219 Z M 219.742188 186.574219 "/>
<path style=" stroke:none;fill-rule:nonzero;fill:rgb(17.254902%,69.01961%,81.568629%);fill-opacity:1;" d="M 477.617188 151.570312 C 477.617188 152.25 477.617188 152.25 476.472656 152.828125 C 476.011719 153.066406 475.554688 153.269531 475.097656 153.472656 C 474.296875 153.8125 474.296875 153.8125 473.609375 154.121094 C 472.234375 154.628906 472.234375 154.628906 470.289062 154.628906 C 470.859375 154.253906 471.546875 153.847656 472.121094 153.472656 C 472.464844 153.269531 472.808594 153.066406 473.152344 152.828125 C 474.523438 152.113281 475.554688 151.570312 477.617188 151.570312 Z M 477.617188 151.570312 "/>
<path style=" stroke:none;fill-rule:nonzero;fill:rgb(20.784314%,39.215687%,70.980394%);fill-opacity:1;" d="M 285.242188 151.570312 C 287.417969 151.671875 289.59375 151.808594 291.882812 151.910156 C 291.425781 152.351562 290.96875 152.792969 290.507812 153.269531 C 290.394531 152.929688 290.164062 152.589844 289.9375 152.25 C 287.1875 152.183594 287.1875 152.183594 284.554688 152.589844 C 284.785156 152.25 285.011719 151.910156 285.242188 151.570312 Z M 285.242188 151.570312 "/>
</g>
</svg>
