<svg xmlns="http://www.w3.org/2000/svg" xmlns:xlink="http://www.w3.org/1999/xlink" width="35px" height="40px" viewBox="0 0 35 40" version="1.1">
<g id="surface1">

<path style=" stroke:none;fill-rule:nonzero;fill:rgb(27.450982%,58.039218%,81.568629%);fill-opacity:1;" d="M 8.703125 13.761719 C 8.742188 13.761719 8.78125 13.761719 8.820312 13.761719 C 8.917969 13.765625 9.019531 13.765625 9.117188 13.769531 C 9.222656 13.773438 9.324219 13.773438 9.425781 13.777344 C 9.625 13.777344 9.824219 13.785156 10.027344 13.789062 C 10.027344 13.816406 10.027344 13.839844 10.027344 13.867188 C 10 13.914062 9.972656 13.957031 9.945312 14.003906 C 9.882812 14.117188 9.832031 14.25 9.78125 14.378906 C 9.753906 14.441406 9.730469 14.5 9.707031 14.558594 C 9.6875 14.601562 9.6875 14.601562 9.671875 14.648438 C 9.632812 14.746094 9.589844 14.84375 9.550781 14.9375 C 9.222656 15.707031 8.902344 16.480469 8.589844 17.265625 C 8.601562 17.265625 8.617188 17.265625 8.628906 17.265625 C 8.839844 17.257812 9.050781 17.285156 9.261719 17.3125 C 9.324219 17.320312 9.390625 17.328125 9.457031 17.335938 C 9.5 17.339844 9.539062 17.34375 9.582031 17.347656 C 9.601562 17.351562 9.621094 17.355469 9.640625 17.355469 C 9.753906 17.371094 9.851562 17.402344 9.957031 17.460938 C 9.921875 17.613281 9.863281 17.707031 9.796875 17.824219 C 9.785156 17.84375 9.773438 17.863281 9.761719 17.882812 C 9.722656 17.949219 9.683594 18.015625 9.644531 18.082031 C 9.617188 18.128906 9.589844 18.175781 9.5625 18.222656 C 9.492188 18.34375 9.417969 18.464844 9.347656 18.585938 C 9.234375 18.78125 9.121094 18.976562 9.003906 19.171875 C 8.964844 19.238281 8.925781 19.304688 8.886719 19.375 C 8.773438 19.5625 8.664062 19.753906 8.5625 19.960938 C 8.484375 20.113281 8.398438 20.257812 8.3125 20.402344 C 8.277344 20.460938 8.242188 20.519531 8.207031 20.582031 C 8.121094 20.726562 8.035156 20.875 7.949219 21.019531 C 7.875 21.144531 7.804688 21.269531 7.730469 21.394531 C 7.695312 21.453125 7.664062 21.511719 7.628906 21.566406 C 7.523438 21.746094 7.421875 21.925781 7.328125 22.117188 C 7.242188 22.289062 7.148438 22.453125 7.058594 22.613281 C 7.03125 22.65625 7.007812 22.699219 6.984375 22.746094 C 6.785156 23.113281 6.785156 23.113281 6.683594 23.144531 C 6.625 23.132812 6.625 23.132812 6.539062 23.085938 C 6.59375 22.792969 6.660156 22.519531 6.738281 22.242188 C 6.75 22.199219 6.761719 22.152344 6.773438 22.105469 C 6.859375 21.796875 6.945312 21.492188 7.035156 21.1875 C 7.097656 20.976562 7.160156 20.761719 7.222656 20.550781 C 7.230469 20.527344 7.238281 20.5 7.246094 20.476562 C 7.335938 20.167969 7.421875 19.859375 7.507812 19.546875 C 7.542969 19.410156 7.582031 19.28125 7.625 19.152344 C 7.636719 19.121094 7.644531 19.089844 7.65625 19.054688 C 7.667969 19.019531 7.667969 19.019531 7.679688 18.984375 C 7.664062 18.984375 7.652344 18.980469 7.636719 18.980469 C 7.488281 18.960938 7.34375 18.941406 7.199219 18.921875 C 7.144531 18.914062 7.089844 18.90625 7.035156 18.902344 C 6.953125 18.890625 6.875 18.878906 6.796875 18.871094 C 6.773438 18.867188 6.75 18.863281 6.722656 18.859375 C 6.691406 18.855469 6.691406 18.855469 6.65625 18.851562 C 6.625 18.847656 6.625 18.847656 6.59375 18.84375 C 6.539062 18.828125 6.496094 18.796875 6.449219 18.75 C 6.460938 18.59375 6.488281 18.5 6.542969 18.375 C 6.628906 18.167969 6.710938 17.953125 6.789062 17.734375 C 6.914062 17.398438 7.042969 17.0625 7.167969 16.726562 C 7.222656 16.585938 7.273438 16.445312 7.328125 16.300781 C 7.339844 16.273438 7.347656 16.246094 7.359375 16.21875 C 7.417969 16.066406 7.476562 15.914062 7.53125 15.757812 C 7.605469 15.5625 7.679688 15.363281 7.757812 15.167969 C 7.769531 15.132812 7.785156 15.09375 7.800781 15.054688 C 7.832031 14.976562 7.867188 14.914062 7.90625 14.84375 C 7.941406 14.742188 7.941406 14.742188 7.972656 14.640625 C 8 14.570312 8 14.570312 8.03125 14.492188 C 8.078125 14.390625 8.109375 14.277344 8.144531 14.160156 C 8.15625 14.128906 8.167969 14.097656 8.179688 14.0625 C 8.1875 14.039062 8.195312 14.015625 8.199219 13.992188 C 8.3125 13.6875 8.519531 13.753906 8.703125 13.761719 Z M 8.703125 13.761719 " data-index="1"></path>
<path style=" stroke:none;fill-rule:nonzero;fill:rgb(18.039216%,58.039218%,79.607844%);fill-opacity:1;" d="M 17.386719 17.578125 C 17.410156 17.605469 17.433594 17.636719 17.457031 17.664062 C 17.660156 18 17.730469 18.417969 17.738281 18.886719 C 17.730469 19.394531 17.640625 19.796875 17.433594 20.171875 C 17.226562 20.511719 16.957031 20.597656 16.675781 20.59375 C 16.453125 20.570312 16.253906 20.460938 16.085938 20.195312 C 16.085938 20.167969 16.085938 20.144531 16.085938 20.117188 C 16.070312 20.117188 16.058594 20.117188 16.042969 20.117188 C 16.042969 20.671875 16.042969 21.226562 16.042969 21.796875 C 15.859375 21.796875 15.679688 21.796875 15.496094 21.796875 C 15.496094 20.3125 15.496094 18.832031 15.496094 17.304688 C 15.675781 17.304688 15.855469 17.304688 16.042969 17.304688 C 16.050781 17.445312 16.058594 17.589844 16.0625 17.734375 C 16.078125 17.699219 16.089844 17.667969 16.105469 17.632812 C 16.414062 16.988281 17.042969 17.136719 17.386719 17.578125 Z M 17.386719 17.578125 " data-index="2"></path>
<path style=" stroke:none;fill-rule:nonzero;fill:rgb(19.215687%,48.235294%,76.862746%);fill-opacity:1;" d="M 19.820312 17.5 C 20.058594 17.847656 20.167969 18.210938 20.195312 18.742188 C 20.207031 19.222656 20.164062 19.691406 19.976562 20.066406 C 19.941406 20.125 19.90625 20.179688 19.871094 20.234375 C 19.855469 20.253906 19.84375 20.273438 19.832031 20.296875 C 19.609375 20.605469 19.324219 20.625 19.054688 20.59375 C 18.839844 20.554688 18.703125 20.367188 18.523438 20.15625 C 18.523438 20.699219 18.523438 21.238281 18.523438 21.796875 C 18.34375 21.796875 18.164062 21.796875 17.976562 21.796875 C 17.976562 20.300781 17.976562 18.804688 17.976562 17.265625 C 18.160156 17.265625 18.339844 17.265625 18.523438 17.265625 C 18.53125 17.421875 18.539062 17.574219 18.546875 17.734375 C 18.5625 17.699219 18.574219 17.667969 18.589844 17.632812 C 18.875 17.042969 19.484375 17.09375 19.820312 17.5 Z M 19.820312 17.5 " data-index="3"></path>
<path style=" stroke:none;fill-rule:nonzero;fill:rgb(12.54902%,67.843139%,81.568629%);fill-opacity:1;" d="M 10.59375 15.742188 C 11.378906 15.742188 12.160156 15.742188 12.964844 15.742188 C 12.964844 16.5625 12.964844 16.5625 12.875 16.761719 C 12.835938 16.8125 12.800781 16.863281 12.761719 16.914062 C 12.726562 16.984375 12.691406 17.050781 12.660156 17.125 C 12.570312 17.3125 12.476562 17.496094 12.378906 17.675781 C 12.25 17.914062 12.128906 18.164062 12.003906 18.414062 C 11.941406 18.535156 11.882812 18.660156 11.820312 18.78125 C 11.800781 18.820312 11.800781 18.820312 11.78125 18.855469 C 11.757812 18.902344 11.734375 18.949219 11.710938 18.996094 C 11.59375 19.222656 11.484375 19.457031 11.371094 19.6875 C 11.90625 19.699219 12.4375 19.714844 12.988281 19.726562 C 12.988281 19.984375 12.988281 20.242188 12.988281 20.507812 C 12.183594 20.507812 11.378906 20.507812 10.550781 20.507812 C 10.550781 19.726562 10.550781 19.726562 10.664062 19.460938 C 10.710938 19.394531 10.753906 19.324219 10.800781 19.257812 C 10.828125 19.207031 10.855469 19.15625 10.878906 19.105469 C 10.898438 19.066406 10.898438 19.066406 10.917969 19.03125 C 10.984375 18.902344 11.046875 18.769531 11.109375 18.640625 C 11.296875 18.261719 11.484375 17.890625 11.679688 17.527344 C 11.839844 17.226562 11.992188 16.914062 12.144531 16.601562 C 11.378906 16.582031 11.378906 16.582031 10.59375 16.5625 C 10.59375 16.292969 10.59375 16.019531 10.59375 15.742188 Z M 10.59375 15.742188 " data-index="4"></path>
<path style=" stroke:none;fill-rule:nonzero;fill:rgb(22.745098%,29.411766%,63.921571%);fill-opacity:1;" d="M 26.960938 17.546875 C 27.105469 17.765625 27.175781 18.039062 27.207031 18.359375 C 27.214844 18.527344 27.210938 18.699219 27.210938 18.867188 C 27.210938 18.917969 27.210938 18.964844 27.210938 19.015625 C 27.210938 19.167969 27.210938 19.320312 27.210938 19.472656 C 27.210938 19.578125 27.210938 19.679688 27.210938 19.785156 C 27.207031 20.039062 27.207031 20.292969 27.207031 20.546875 C 27.027344 20.546875 26.847656 20.546875 26.660156 20.546875 C 26.652344 20.40625 26.644531 20.261719 26.636719 20.117188 C 26.613281 20.160156 26.589844 20.199219 26.5625 20.242188 C 26.34375 20.578125 26.03125 20.617188 25.75 20.585938 C 25.566406 20.527344 25.410156 20.40625 25.296875 20.148438 C 25.195312 19.875 25.1875 19.605469 25.226562 19.296875 C 25.269531 19.035156 25.359375 18.882812 25.5 18.75 C 25.851562 18.457031 26.253906 18.503906 26.636719 18.515625 C 26.632812 18.457031 26.632812 18.402344 26.628906 18.347656 C 26.625 18.296875 26.625 18.296875 26.625 18.25 C 26.617188 18.15625 26.617188 18.15625 26.574219 18.070312 C 26.449219 17.917969 26.332031 17.917969 26.183594 17.917969 C 26.164062 17.917969 26.144531 17.917969 26.121094 17.914062 C 26.003906 17.914062 25.917969 17.933594 25.816406 18.046875 C 25.800781 18.074219 25.789062 18.105469 25.773438 18.132812 C 25.726562 18.203125 25.726562 18.203125 25.65625 18.199219 C 25.625 18.1875 25.597656 18.175781 25.566406 18.164062 C 25.523438 18.152344 25.476562 18.136719 25.433594 18.125 C 25.320312 18.089844 25.320312 18.089844 25.292969 18.046875 C 25.273438 17.921875 25.269531 17.820312 25.292969 17.695312 C 25.671875 17.039062 26.535156 17.03125 26.960938 17.546875 Z M 26.960938 17.546875 " data-index="5"></path>
<path style=" stroke:none;fill-rule:nonzero;fill:rgb(14.901961%,65.882355%,81.176472%);fill-opacity:1;" d="M 14.179688 17.21875 C 14.203125 17.21875 14.230469 17.21875 14.253906 17.21875 C 14.523438 17.21875 14.753906 17.292969 14.964844 17.589844 C 15.082031 17.832031 15.15625 18.039062 15.15625 18.355469 C 15.15625 18.429688 15.15625 18.429688 15.15625 18.5 C 15.15625 18.554688 15.15625 18.605469 15.15625 18.65625 C 15.15625 18.710938 15.15625 18.765625 15.15625 18.816406 C 15.15625 18.957031 15.15625 19.097656 15.15625 19.238281 C 15.15625 19.378906 15.152344 19.523438 15.152344 19.667969 C 15.152344 19.945312 15.152344 20.226562 15.152344 20.507812 C 14.988281 20.507812 14.820312 20.507812 14.652344 20.507812 C 14.652344 20.367188 14.652344 20.222656 14.652344 20.078125 C 14.636719 20.078125 14.621094 20.078125 14.605469 20.078125 C 14.59375 20.136719 14.59375 20.136719 14.582031 20.195312 C 14.394531 20.507812 14.113281 20.59375 13.859375 20.605469 C 13.640625 20.59375 13.460938 20.496094 13.300781 20.230469 C 13.195312 20.027344 13.152344 19.828125 13.160156 19.554688 C 13.1875 19.238281 13.246094 19.003906 13.398438 18.804688 C 13.675781 18.488281 14.039062 18.507812 14.359375 18.511719 C 14.398438 18.511719 14.398438 18.511719 14.4375 18.515625 C 14.503906 18.515625 14.566406 18.515625 14.628906 18.515625 C 14.621094 18.453125 14.617188 18.390625 14.609375 18.328125 C 14.605469 18.273438 14.605469 18.273438 14.597656 18.21875 C 14.585938 18.117188 14.585938 18.117188 14.53125 18.027344 C 14.351562 17.855469 14.152344 17.847656 13.953125 17.910156 C 13.859375 17.957031 13.816406 17.988281 13.753906 18.117188 C 13.695312 18.203125 13.695312 18.203125 13.636719 18.199219 C 13.570312 18.179688 13.507812 18.15625 13.445312 18.125 C 13.425781 18.117188 13.410156 18.109375 13.390625 18.101562 C 13.355469 18.085938 13.320312 18.066406 13.285156 18.046875 C 13.269531 17.921875 13.265625 17.820312 13.285156 17.695312 C 13.503906 17.273438 13.871094 17.21875 14.179688 17.21875 Z M 14.179688 17.21875 " data-index="6"></path>
<path style=" stroke:none;fill-rule:nonzero;fill:rgb(20.784314%,40.000001%,72.941178%);fill-opacity:1;" d="M 22.125 17.550781 C 22.351562 17.878906 22.433594 18.214844 22.46875 18.710938 C 22.46875 18.878906 22.46875 19.046875 22.46875 19.21875 C 21.964844 19.21875 21.460938 19.21875 20.941406 19.21875 C 20.988281 19.460938 21.027344 19.644531 21.15625 19.777344 C 21.324219 19.914062 21.53125 19.9375 21.714844 19.851562 C 21.792969 19.796875 21.863281 19.738281 21.9375 19.65625 C 22.011719 19.589844 22.046875 19.609375 22.125 19.648438 C 22.203125 19.699219 22.277344 19.75 22.351562 19.804688 C 22.367188 19.929688 22.371094 19.996094 22.351562 20.117188 C 22.199219 20.425781 21.925781 20.558594 21.695312 20.597656 C 21.273438 20.636719 20.945312 20.578125 20.621094 20.085938 C 20.429688 19.75 20.382812 19.355469 20.382812 18.898438 C 20.378906 18.863281 20.378906 18.828125 20.378906 18.789062 C 20.382812 18.347656 20.488281 17.996094 20.671875 17.6875 C 21.054688 17.09375 21.699219 17.019531 22.125 17.550781 Z M 22.125 17.550781 " data-index="7"></path>
<path style=" stroke:none;fill-rule:nonzero;fill:rgb(22.745098%,36.470589%,70.19608%);fill-opacity:1;" d="M 24.109375 17.226562 C 24.136719 17.253906 24.167969 17.277344 24.199219 17.304688 C 24.199219 17.589844 24.199219 17.871094 24.199219 18.164062 C 24.125 18.152344 24.046875 18.136719 23.972656 18.125 C 23.777344 18.097656 23.632812 18.125 23.46875 18.320312 C 23.378906 18.484375 23.328125 18.632812 23.324219 18.863281 C 23.324219 18.898438 23.324219 18.9375 23.324219 18.976562 C 23.324219 19.035156 23.324219 19.035156 23.324219 19.097656 C 23.324219 19.140625 23.324219 19.179688 23.324219 19.222656 C 23.320312 19.355469 23.320312 19.488281 23.320312 19.617188 C 23.316406 19.707031 23.316406 19.796875 23.316406 19.886719 C 23.3125 20.109375 23.3125 20.328125 23.308594 20.546875 C 23.121094 20.546875 22.933594 20.546875 22.742188 20.546875 C 22.742188 19.464844 22.742188 18.382812 22.742188 17.265625 C 22.921875 17.265625 23.101562 17.265625 23.289062 17.265625 C 23.289062 17.484375 23.289062 17.703125 23.289062 17.929688 C 23.304688 17.929688 23.316406 17.929688 23.332031 17.929688 C 23.335938 17.902344 23.339844 17.875 23.347656 17.847656 C 23.425781 17.5625 23.574219 17.402344 23.738281 17.269531 C 23.859375 17.199219 23.980469 17.195312 24.109375 17.226562 Z M 24.109375 17.226562 " data-index="8"></path>
<path style=" stroke:none;fill-rule:nonzero;fill:rgb(24.705882%,27.058825%,60.392159%);fill-opacity:1;" d="M 27.503906 17.265625 C 27.691406 17.265625 27.878906 17.265625 28.074219 17.265625 C 28.074219 18.347656 28.074219 19.429688 28.074219 20.546875 C 27.886719 20.546875 27.695312 20.546875 27.503906 20.546875 C 27.503906 19.464844 27.503906 18.382812 27.503906 17.265625 Z M 27.503906 17.265625 " data-index="9"></path>
<path style=" stroke:none;fill-rule:nonzero;fill:rgb(98.039216%,98.823529%,99.215686%);fill-opacity:1;" d="M 19.371094 18.011719 C 19.5 18.15625 19.59375 18.339844 19.640625 18.59375 C 19.664062 18.9375 19.648438 19.335938 19.523438 19.625 C 19.386719 19.839844 19.214844 19.9375 19.027344 19.921875 C 18.867188 19.890625 18.753906 19.800781 18.640625 19.609375 C 18.523438 19.347656 18.480469 19.035156 18.503906 18.710938 C 18.539062 18.421875 18.640625 18.214844 18.769531 18.03125 C 18.9375 17.851562 19.195312 17.855469 19.371094 18.011719 Z M 19.371094 18.011719 " data-index="10"></path>
<path style=" stroke:none;fill-rule:nonzero;fill:rgb(98.431373%,98.823529%,99.215686%);fill-opacity:1;" d="M 16.925781 18.0625 C 17.039062 18.203125 17.117188 18.363281 17.15625 18.59375 C 17.175781 18.933594 17.175781 19.273438 17.066406 19.570312 C 16.964844 19.769531 16.859375 19.871094 16.707031 19.898438 C 16.5 19.910156 16.339844 19.898438 16.179688 19.648438 C 16.023438 19.355469 16.027344 19.042969 16.039062 18.671875 C 16.050781 18.441406 16.113281 18.304688 16.207031 18.152344 C 16.425781 17.867188 16.6875 17.828125 16.925781 18.0625 Z M 16.925781 18.0625 " data-index="11"></path>
<path style=" stroke:none;fill-rule:nonzero;fill:rgb(19.215687%,26.666668%,57.647061%);fill-opacity:1;" d="M 9.730469 17.421875 C 9.804688 17.433594 9.878906 17.449219 9.957031 17.460938 C 9.910156 17.617188 9.867188 17.699219 9.796875 17.824219 C 9.777344 17.855469 9.777344 17.855469 9.761719 17.882812 C 9.722656 17.949219 9.683594 18.015625 9.644531 18.082031 C 9.617188 18.128906 9.589844 18.175781 9.5625 18.222656 C 9.492188 18.34375 9.417969 18.464844 9.347656 18.585938 C 9.234375 18.78125 9.121094 18.976562 9.003906 19.171875 C 8.964844 19.238281 8.925781 19.304688 8.886719 19.375 C 8.773438 19.5625 8.664062 19.753906 8.5625 19.960938 C 8.484375 20.113281 8.398438 20.257812 8.3125 20.402344 C 8.277344 20.460938 8.242188 20.519531 8.207031 20.582031 C 8.121094 20.726562 8.035156 20.875 7.949219 21.019531 C 7.875 21.144531 7.804688 21.269531 7.730469 21.394531 C 7.695312 21.453125 7.664062 21.511719 7.628906 21.566406 C 7.523438 21.746094 7.421875 21.925781 7.328125 22.117188 C 7.242188 22.289062 7.148438 22.453125 7.058594 22.613281 C 7.03125 22.65625 7.007812 22.699219 6.984375 22.746094 C 6.785156 23.113281 6.785156 23.113281 6.683594 23.144531 C 6.625 23.132812 6.625 23.132812 6.539062 23.085938 C 6.59375 22.792969 6.660156 22.519531 6.738281 22.242188 C 6.75 22.199219 6.761719 22.152344 6.773438 22.105469 C 6.859375 21.796875 6.945312 21.492188 7.035156 21.191406 C 7.09375 20.992188 7.152344 20.789062 7.210938 20.589844 C 7.234375 20.515625 7.253906 20.441406 7.277344 20.367188 C 7.289062 20.320312 7.304688 20.277344 7.316406 20.230469 C 7.335938 20.167969 7.335938 20.167969 7.355469 20.105469 C 7.382812 20 7.382812 20 7.40625 19.882812 C 7.421875 19.882812 7.4375 19.882812 7.449219 19.882812 C 7.4375 20 7.414062 20.101562 7.382812 20.210938 C 7.375 20.246094 7.363281 20.277344 7.355469 20.3125 C 7.34375 20.347656 7.335938 20.382812 7.324219 20.421875 C 7.3125 20.457031 7.304688 20.492188 7.292969 20.53125 C 7.226562 20.773438 7.15625 21.011719 7.085938 21.25 C 6.992188 21.574219 6.902344 21.898438 6.8125 22.226562 C 6.800781 22.269531 6.789062 22.316406 6.777344 22.359375 C 6.730469 22.535156 6.6875 22.707031 6.652344 22.890625 C 6.636719 22.929688 6.625 22.96875 6.609375 23.007812 C 6.671875 22.984375 6.695312 22.972656 6.746094 22.890625 C 6.738281 22.863281 6.730469 22.839844 6.722656 22.8125 C 6.738281 22.792969 6.753906 22.773438 6.769531 22.753906 C 6.839844 22.652344 6.894531 22.542969 6.953125 22.421875 C 6.996094 22.34375 6.996094 22.34375 7.050781 22.269531 C 7.113281 22.183594 7.152344 22.097656 7.199219 21.996094 C 7.292969 21.792969 7.398438 21.613281 7.503906 21.429688 C 7.585938 21.292969 7.664062 21.152344 7.738281 21 C 7.785156 20.910156 7.835938 20.828125 7.882812 20.742188 C 7.902344 20.703125 7.921875 20.664062 7.941406 20.621094 C 7.992188 20.515625 8.046875 20.4375 8.113281 20.351562 C 8.121094 20.324219 8.128906 20.300781 8.132812 20.273438 C 8.148438 20.273438 8.164062 20.273438 8.179688 20.273438 C 8.1875 20.25 8.191406 20.226562 8.199219 20.203125 C 8.253906 20.023438 8.339844 19.878906 8.429688 19.75 C 8.484375 19.667969 8.527344 19.597656 8.574219 19.503906 C 8.652344 19.347656 8.738281 19.199219 8.824219 19.050781 C 8.84375 19.015625 8.84375 19.015625 8.867188 18.976562 C 8.914062 18.894531 8.960938 18.816406 9.007812 18.734375 C 9.070312 18.628906 9.132812 18.523438 9.195312 18.417969 C 9.210938 18.394531 9.226562 18.367188 9.238281 18.34375 C 9.3125 18.226562 9.3125 18.226562 9.363281 18.085938 C 9.378906 18.085938 9.394531 18.085938 9.410156 18.085938 C 9.417969 18.050781 9.417969 18.050781 9.429688 18.015625 C 9.460938 17.917969 9.492188 17.867188 9.542969 17.796875 C 9.625 17.683594 9.675781 17.574219 9.730469 17.421875 Z M 9.730469 17.421875 " data-index="12"></path>
<path style=" stroke:none;fill-rule:nonzero;fill:rgb(96.862745%,98.431373%,98.823529%);fill-opacity:1;" d="M 14.402344 19.058594 C 14.425781 19.058594 14.445312 19.058594 14.46875 19.0625 C 14.523438 19.0625 14.574219 19.0625 14.628906 19.0625 C 14.640625 19.285156 14.648438 19.476562 14.574219 19.664062 C 14.464844 19.882812 14.285156 19.984375 14.121094 20.007812 C 13.976562 20.011719 13.878906 19.984375 13.765625 19.824219 C 13.722656 19.726562 13.714844 19.636719 13.707031 19.515625 C 13.71875 19.375 13.71875 19.375 13.78125 19.265625 C 13.976562 19.039062 14.171875 19.054688 14.402344 19.058594 Z M 14.402344 19.058594 " data-index="13"></path>
<path style=" stroke:none;fill-rule:nonzero;fill:rgb(96.862745%,96.862745%,98.039216%);fill-opacity:1;" d="M 26.277344 19.058594 C 26.300781 19.058594 26.320312 19.058594 26.34375 19.058594 C 26.367188 19.058594 26.390625 19.058594 26.414062 19.058594 C 26.449219 19.058594 26.449219 19.058594 26.488281 19.0625 C 26.542969 19.0625 26.601562 19.0625 26.660156 19.0625 C 26.660156 19.117188 26.660156 19.175781 26.660156 19.230469 C 26.664062 19.277344 26.664062 19.277344 26.664062 19.324219 C 26.65625 19.503906 26.605469 19.617188 26.542969 19.753906 C 26.398438 19.953125 26.21875 20.015625 26.035156 20.011719 C 25.945312 19.992188 25.867188 19.9375 25.792969 19.84375 C 25.738281 19.699219 25.734375 19.582031 25.75 19.414062 C 25.785156 19.285156 25.816406 19.234375 25.894531 19.183594 C 25.953125 19.152344 26.007812 19.125 26.066406 19.101562 C 26.082031 19.09375 26.09375 19.089844 26.109375 19.082031 C 26.167969 19.058594 26.21875 19.058594 26.277344 19.058594 Z M 26.277344 19.058594 " data-index="14"></path>
<path style=" stroke:none;fill-rule:nonzero;fill:rgb(22.745098%,58.431375%,71.372551%);fill-opacity:1;" d="M 9.867188 13.820312 C 9.910156 13.824219 9.957031 13.824219 10.003906 13.828125 C 9.847656 14.242188 9.675781 14.636719 9.507812 15.035156 C 9.320312 15.472656 9.136719 15.914062 8.957031 16.359375 C 8.875 16.558594 8.792969 16.757812 8.710938 16.957031 C 8.699219 16.980469 8.691406 17.003906 8.683594 17.027344 C 8.644531 17.113281 8.613281 17.191406 8.566406 17.265625 C 8.507812 17.277344 8.445312 17.269531 8.386719 17.265625 C 8.40625 17.113281 8.4375 17.011719 8.496094 16.898438 C 8.578125 16.75 8.644531 16.585938 8.710938 16.417969 C 8.796875 16.203125 8.886719 15.992188 8.980469 15.785156 C 9.0625 15.601562 9.140625 15.414062 9.214844 15.21875 C 9.761719 13.839844 9.761719 13.839844 9.867188 13.820312 Z M 9.867188 13.820312 " data-index="15"></path>
<path style=" stroke:none;fill-rule:nonzero;fill:rgb(96.862745%,97.647059%,98.431373%);fill-opacity:1;" d="M 21.710938 17.921875 C 21.816406 18.027344 21.898438 18.199219 21.941406 18.398438 C 21.941406 18.476562 21.941406 18.554688 21.941406 18.632812 C 21.613281 18.632812 21.28125 18.632812 20.941406 18.632812 C 20.964844 18.347656 20.988281 18.226562 21.113281 18.039062 C 21.277344 17.835938 21.511719 17.820312 21.710938 17.921875 Z M 21.710938 17.921875 " data-index="16"></path>

<path style="stroke: none; fill-rule: nonzero; fill: rgb(61, 75, 160); fill-opacity: 1; visibility: hidden;" d="M 27.867188 15.898438 C 27.953125 15.960938 28.027344 16.03125 28.078125 16.167969 C 28.105469 16.300781 28.109375 16.425781 28.09375 16.5625 C 28.046875 16.734375 27.996094 16.84375 27.890625 16.914062 C 27.785156 16.941406 27.691406 16.933594 27.597656 16.851562 C 27.507812 16.734375 27.46875 16.636719 27.449219 16.445312 C 27.441406 16.292969 27.453125 16.222656 27.507812 16.101562 C 27.53125 16.074219 27.550781 16.042969 27.570312 16.015625 C 27.585938 15.992188 27.597656 15.96875 27.613281 15.945312 C 27.695312 15.867188 27.773438 15.871094 27.867188 15.898438 Z M 27.867188 15.898438 " data-index="18"></path>
<path style=" stroke:none;fill-rule:nonzero;fill:rgb(18.431373%,33.725491%,56.470591%);fill-opacity:1;" d="M 6.492188 18.710938 C 6.554688 18.710938 6.613281 18.710938 6.671875 18.707031 C 6.699219 18.707031 6.699219 18.707031 6.722656 18.707031 C 6.832031 18.707031 6.941406 18.71875 7.050781 18.738281 C 7.175781 18.761719 7.304688 18.765625 7.429688 18.773438 C 7.539062 18.78125 7.640625 18.792969 7.746094 18.828125 C 7.738281 18.890625 7.730469 18.957031 7.726562 19.023438 C 7.714844 18.984375 7.714844 18.984375 7.703125 18.945312 C 7.679688 18.945312 7.660156 18.945312 7.636719 18.945312 C 7.414062 18.949219 7.195312 18.933594 6.972656 18.902344 C 6.917969 18.894531 6.863281 18.886719 6.808594 18.878906 C 6.773438 18.875 6.742188 18.871094 6.707031 18.863281 C 6.683594 18.863281 6.683594 18.863281 6.65625 18.859375 C 6.613281 18.851562 6.613281 18.851562 6.539062 18.828125 C 6.523438 18.789062 6.507812 18.75 6.492188 18.710938 Z M 6.492188 18.710938 " data-index="19"></path>
<path style=" stroke:none;fill-rule:nonzero;fill:rgb(17.254902%,30.19608%,52.941179%);fill-opacity:1;" d="M 6.492188 18.710938 C 6.699219 18.707031 6.902344 18.707031 7.109375 18.75 C 7.109375 18.777344 7.109375 18.800781 7.109375 18.828125 C 7.15625 18.828125 7.199219 18.828125 7.246094 18.828125 C 7.246094 18.839844 7.246094 18.855469 7.246094 18.867188 C 6.660156 18.875 6.660156 18.875 6.539062 18.828125 C 6.523438 18.789062 6.507812 18.75 6.492188 18.710938 Z M 6.492188 18.710938 " data-index="20"></path>
<path style=" stroke:none;fill-rule:nonzero;fill:rgb(18.039216%,16.078432%,42.745098%);fill-opacity:1;" d="M 6.699219 22.460938 C 6.726562 22.609375 6.710938 22.667969 6.675781 22.8125 C 6.65625 22.878906 6.632812 22.945312 6.609375 23.007812 C 6.71875 22.996094 6.769531 22.90625 6.847656 22.785156 C 6.882812 22.734375 6.882812 22.734375 6.925781 22.734375 C 6.890625 22.894531 6.832031 23.035156 6.746094 23.125 C 6.671875 23.132812 6.609375 23.113281 6.539062 23.085938 C 6.578125 22.859375 6.625 22.664062 6.699219 22.460938 Z M 6.699219 22.460938 " data-index="21"></path>
<path style=" stroke:none;fill-rule:nonzero;fill:rgb(32.941177%,69.01961%,83.529413%);fill-opacity:1;" d="M 17.976562 17.265625 C 18.160156 17.265625 18.339844 17.265625 18.523438 17.265625 C 18.53125 17.421875 18.539062 17.574219 18.546875 17.734375 C 18.574219 17.679688 18.574219 17.679688 18.597656 17.621094 C 18.652344 17.511719 18.695312 17.460938 18.777344 17.421875 C 18.777344 17.5 18.777344 17.5 18.738281 17.566406 C 18.722656 17.589844 18.707031 17.613281 18.691406 17.640625 C 18.675781 17.664062 18.660156 17.6875 18.640625 17.710938 C 18.59375 17.773438 18.5625 17.796875 18.503906 17.8125 C 18.480469 17.734375 18.480469 17.734375 18.457031 17.34375 C 18.300781 17.332031 18.140625 17.316406 17.976562 17.304688 C 17.976562 17.292969 17.976562 17.277344 17.976562 17.265625 Z M 17.976562 17.265625 " data-index="22"></path>
<path style=" stroke:none;fill-rule:nonzero;fill:rgb(19.607843%,17.254902%,50.588238%);fill-opacity:1;" d="M 7.496094 21.445312 C 7.503906 21.472656 7.511719 21.496094 7.519531 21.523438 C 7.40625 21.757812 7.28125 21.972656 7.15625 22.1875 C 7.15625 22.042969 7.171875 22.023438 7.230469 21.921875 C 7.246094 21.894531 7.261719 21.867188 7.277344 21.835938 C 7.292969 21.808594 7.308594 21.78125 7.324219 21.75 C 7.351562 21.707031 7.351562 21.707031 7.375 21.660156 C 7.414062 21.589844 7.457031 21.515625 7.496094 21.445312 Z M 7.496094 21.445312 " data-index="23"></path>

<path style=" stroke:none;fill-rule:nonzero;fill:rgb(17.254902%,69.01961%,81.568629%);fill-opacity:1;" d="M 16.292969 17.421875 C 16.292969 17.5 16.292969 17.5 16.253906 17.566406 C 16.238281 17.59375 16.222656 17.617188 16.207031 17.640625 C 16.179688 17.679688 16.179688 17.679688 16.15625 17.714844 C 16.109375 17.773438 16.109375 17.773438 16.042969 17.773438 C 16.0625 17.730469 16.085938 17.683594 16.105469 17.640625 C 16.117188 17.617188 16.128906 17.59375 16.140625 17.566406 C 16.1875 17.484375 16.222656 17.421875 16.292969 17.421875 Z M 16.292969 17.421875 " data-index="25"></path>

<path style="stroke: none; fill-rule: nonzero; fill: rgb(73, 116, 201); fill-opacity: 1; visibility: hidden;" d="M 7.632812 19.179688 C 7.640625 19.207031 7.648438 19.230469 7.65625 19.257812 C 7.628906 19.359375 7.628906 19.359375 7.589844 19.476562 C 7.570312 19.535156 7.570312 19.535156 7.550781 19.597656 C 7.539062 19.625 7.53125 19.65625 7.519531 19.6875 C 7.511719 19.660156 7.503906 19.636719 7.496094 19.609375 C 7.519531 19.519531 7.519531 19.519531 7.550781 19.410156 C 7.566406 19.359375 7.566406 19.359375 7.582031 19.304688 C 7.609375 19.21875 7.609375 19.21875 7.632812 19.179688 Z M 7.632812 19.179688 " data-index="27"></path>
<path style=" stroke:none;fill-rule:nonzero;fill:rgb(20.784314%,39.215687%,70.980394%);fill-opacity:1;" d="M 9.730469 17.421875 C 9.804688 17.433594 9.878906 17.449219 9.957031 17.460938 C 9.941406 17.511719 9.925781 17.5625 9.910156 17.617188 C 9.90625 17.578125 9.898438 17.539062 9.890625 17.5 C 9.796875 17.492188 9.796875 17.492188 9.707031 17.539062 C 9.714844 17.5 9.722656 17.460938 9.730469 17.421875 Z M 9.730469 17.421875 " data-index="28"></path>

</g>
</svg>