<?xml version="1.0" encoding="UTF-8"?>
<svg xmlns="http://www.w3.org/2000/svg" xmlns:xlink="http://www.w3.org/1999/xlink" width="35px" height="45px" viewBox="0 0 35 45" version="1.1">
<g id="surface1">
<path style=" stroke:none;fill-rule:nonzero;fill:rgb(7.450981%,64.705884%,99.607843%);fill-opacity:1;" d="M 25.070312 4.894531 C 25.25 4.894531 25.429688 4.894531 25.613281 4.894531 C 25.515625 5.628906 25.332031 6.269531 25.007812 6.972656 C 24.964844 7.066406 24.921875 7.160156 24.878906 7.257812 C 24.785156 7.457031 24.695312 7.65625 24.601562 7.859375 C 24.351562 8.402344 24.105469 8.945312 23.855469 9.488281 C 23.804688 9.601562 23.753906 9.710938 23.703125 9.828125 C 23.199219 10.941406 22.726562 12.0625 22.257812 13.183594 C 21.246094 15.601562 20.167969 18 19.082031 20.398438 C 19.222656 20.386719 19.359375 20.375 19.503906 20.367188 C 20.609375 20.289062 21.652344 20.253906 22.753906 20.320312 C 22.988281 20.335938 23.222656 20.347656 23.460938 20.363281 C 23.71875 20.378906 23.71875 20.378906 23.980469 20.398438 C 24.039062 20.308594 24.101562 20.21875 24.160156 20.128906 C 24.160156 20.214844 24.160156 20.304688 24.160156 20.398438 C 26.078125 20.398438 27.992188 20.398438 29.96875 20.398438 C 29.765625 21.457031 29.765625 21.457031 29.289062 21.871094 C 29.113281 22.023438 29.113281 22.023438 28.9375 22.183594 C 28.800781 22.304688 28.660156 22.425781 28.515625 22.554688 C 28.34375 22.710938 28.167969 22.871094 27.996094 23.03125 C 26.742188 24.1875 25.472656 25.332031 24.199219 26.476562 C 23.71875 26.910156 23.242188 27.34375 22.765625 27.777344 C 22.097656 28.386719 21.414062 28.988281 20.730469 29.585938 C 20.066406 30.164062 19.421875 30.75 18.777344 31.339844 C 18.304688 31.765625 17.828125 32.183594 17.347656 32.605469 C 16.644531 33.21875 15.960938 33.839844 15.285156 34.472656 C 14.847656 34.875 14.398438 35.269531 13.945312 35.664062 C 13.238281 36.277344 12.558594 36.902344 11.890625 37.542969 C 11.175781 38.226562 10.433594 38.878906 9.640625 39.515625 C 9.265625 39.8125 9.265625 39.8125 8.917969 40.183594 C 8.800781 40.28125 8.679688 40.378906 8.558594 40.480469 C 8.316406 40.480469 8.078125 40.480469 7.832031 40.480469 C 7.945312 39.554688 8.347656 38.707031 8.742188 37.828125 C 8.816406 37.660156 8.890625 37.492188 8.964844 37.320312 C 9.164062 36.867188 9.367188 36.417969 9.566406 35.96875 C 9.734375 35.59375 9.898438 35.222656 10.0625 34.851562 C 11.128906 32.441406 12.214844 30.039062 13.328125 27.644531 C 13.375 27.546875 13.421875 27.453125 13.464844 27.351562 C 13.585938 27.097656 13.703125 26.847656 13.820312 26.59375 C 14.015625 26.171875 14.015625 26.171875 14.183594 25.652344 C 8.882812 25.585938 8.882812 25.585938 3.476562 25.519531 C 3.652344 24.730469 3.890625 24.40625 4.542969 23.824219 C 4.632812 23.742188 4.722656 23.660156 4.8125 23.578125 C 5.492188 22.960938 6.1875 22.355469 6.886719 21.75 C 7.640625 21.09375 8.324219 20.410156 9.011719 19.714844 C 9.757812 18.972656 10.550781 18.261719 11.367188 17.558594 C 12.191406 16.84375 12.96875 16.101562 13.75 15.363281 C 13.921875 15.203125 14.089844 15.039062 14.261719 14.878906 C 14.347656 14.796875 14.433594 14.714844 14.519531 14.632812 C 15.164062 14.023438 15.824219 13.421875 16.488281 12.824219 C 16.949219 12.402344 17.402344 11.972656 17.855469 11.542969 C 18.972656 10.484375 20.113281 9.441406 21.257812 8.398438 C 21.40625 8.265625 21.554688 8.128906 21.707031 7.992188 C 22.261719 7.484375 22.820312 6.980469 23.382812 6.480469 C 23.464844 6.40625 23.546875 6.332031 23.632812 6.257812 C 23.863281 6.050781 24.097656 5.847656 24.332031 5.640625 C 24.71875 5.296875 24.71875 5.296875 25.070312 4.894531 Z M 25.070312 4.894531 "/>
<path style=" stroke:none;fill-rule:nonzero;fill:rgb(27.058825%,20.784314%,88.627452%);fill-opacity:1;" d="M 14.183594 25.921875 C 14.402344 26.414062 14.300781 26.617188 14.125 27.113281 C 14.046875 27.328125 14.046875 27.328125 13.96875 27.550781 C 13.816406 27.957031 13.648438 28.355469 13.457031 28.753906 C 13.152344 29.402344 12.878906 30.050781 12.652344 30.71875 C 12.449219 31.285156 12.179688 31.765625 11.808594 32.28125 C 11.554688 32.664062 11.421875 33.0625 11.277344 33.472656 C 11.15625 33.742188 11.039062 34.011719 10.917969 34.28125 C 10.890625 34.363281 10.863281 34.441406 10.835938 34.527344 C 10.710938 34.886719 10.554688 35.234375 10.394531 35.585938 C 10.328125 35.730469 10.265625 35.875 10.199219 36.023438 C 10.085938 36.269531 9.972656 36.519531 9.859375 36.765625 C 9.566406 37.414062 9.296875 38.066406 9.039062 38.722656 C 8.921875 39 8.921875 39 8.738281 39.269531 C 9.097656 39.234375 9.097656 39.234375 9.464844 39.132812 C 9.523438 39 9.585938 38.867188 9.644531 38.730469 C 9.890625 38.546875 10.140625 38.367188 10.394531 38.191406 C 10.984375 37.753906 11.480469 37.265625 11.996094 36.78125 C 12.425781 36.382812 12.875 35.996094 13.335938 35.613281 C 13.734375 35.277344 14.117188 34.933594 14.496094 34.585938 C 14.726562 34.417969 14.726562 34.417969 15.089844 34.417969 C 15.089844 34.28125 15.089844 34.148438 15.089844 34.011719 C 15.210938 34.011719 15.328125 34.011719 15.453125 34.011719 C 15.488281 33.921875 15.527344 33.832031 15.566406 33.742188 C 16.078125 32.914062 16.898438 32.191406 17.8125 31.585938 C 17.992188 31.539062 18.171875 31.496094 18.355469 31.449219 C 18.398438 31.316406 18.398438 31.316406 18.445312 31.179688 C 18.492188 31.046875 18.492188 31.046875 18.535156 30.910156 C 18.714844 30.867188 18.894531 30.824219 19.082031 30.777344 C 19.28125 30.453125 19.28125 30.453125 19.445312 30.101562 C 19.625 29.902344 19.625 29.902344 19.808594 29.699219 C 19.925781 29.699219 20.046875 29.699219 20.167969 29.699219 C 20.289062 29.519531 20.410156 29.34375 20.53125 29.160156 C 20.652344 29.160156 20.773438 29.160156 20.894531 29.160156 C 21.074219 28.824219 21.074219 28.824219 21.257812 28.484375 C 21.527344 28.550781 21.527344 28.550781 21.800781 28.621094 C 20.9375 29.414062 20.0625 30.199219 19.171875 30.980469 C 18.28125 31.757812 17.40625 32.546875 16.539062 33.335938 C 15.683594 34.121094 14.816406 34.902344 13.933594 35.671875 C 13.230469 36.28125 12.554688 36.90625 11.890625 37.542969 C 11.175781 38.226562 10.433594 38.878906 9.640625 39.515625 C 9.265625 39.8125 9.265625 39.8125 8.917969 40.183594 C 8.742188 40.332031 8.742188 40.332031 8.558594 40.480469 C 8.316406 40.480469 8.078125 40.480469 7.832031 40.480469 C 7.945312 39.554688 8.347656 38.707031 8.742188 37.828125 C 8.816406 37.660156 8.890625 37.492188 8.964844 37.320312 C 9.164062 36.867188 9.367188 36.417969 9.566406 35.96875 C 9.734375 35.59375 9.898438 35.222656 10.0625 34.851562 C 11.039062 32.648438 12.027344 30.449219 13.035156 28.257812 C 13.085938 28.152344 13.136719 28.042969 13.1875 27.933594 C 13.964844 26.25 13.964844 26.25 14.183594 25.921875 Z M 14.183594 25.921875 "/>
<path style=" stroke:none;fill-rule:nonzero;fill:rgb(24.705882%,18.82353%,86.274511%);fill-opacity:1;" d="M 21.257812 28.484375 C 21.4375 28.53125 21.617188 28.574219 21.800781 28.621094 C 20.9375 29.414062 20.0625 30.199219 19.171875 30.980469 C 18.28125 31.757812 17.40625 32.546875 16.539062 33.335938 C 15.683594 34.121094 14.816406 34.902344 13.933594 35.671875 C 13.230469 36.28125 12.554688 36.90625 11.890625 37.542969 C 11.175781 38.226562 10.433594 38.878906 9.640625 39.515625 C 9.265625 39.8125 9.265625 39.8125 8.917969 40.183594 C 8.742188 40.332031 8.742188 40.332031 8.558594 40.480469 C 8.316406 40.480469 8.078125 40.480469 7.832031 40.480469 C 7.890625 40.171875 7.953125 39.859375 8.011719 39.539062 C 8.074219 39.539062 8.132812 39.539062 8.195312 39.539062 C 8.253906 39.761719 8.3125 39.984375 8.375 40.210938 C 8.765625 39.972656 8.765625 39.972656 8.816406 39.671875 C 8.921875 39.402344 8.921875 39.402344 9.464844 39.132812 C 9.523438 39 9.585938 38.867188 9.644531 38.730469 C 9.890625 38.546875 10.140625 38.367188 10.394531 38.191406 C 10.984375 37.753906 11.480469 37.265625 11.996094 36.78125 C 12.425781 36.382812 12.875 35.996094 13.335938 35.613281 C 13.734375 35.277344 14.117188 34.933594 14.496094 34.585938 C 14.726562 34.417969 14.726562 34.417969 15.089844 34.417969 C 15.089844 34.28125 15.089844 34.148438 15.089844 34.011719 C 15.210938 34.011719 15.328125 34.011719 15.453125 34.011719 C 15.488281 33.921875 15.527344 33.832031 15.566406 33.742188 C 16.078125 32.914062 16.898438 32.191406 17.8125 31.585938 C 17.992188 31.539062 18.171875 31.496094 18.355469 31.449219 C 18.386719 31.363281 18.414062 31.273438 18.445312 31.179688 C 18.476562 31.09375 18.507812 31.003906 18.535156 30.910156 C 18.714844 30.867188 18.894531 30.824219 19.082031 30.777344 C 19.28125 30.453125 19.28125 30.453125 19.445312 30.101562 C 19.5625 29.96875 19.683594 29.835938 19.808594 29.699219 C 19.925781 29.699219 20.046875 29.699219 20.167969 29.699219 C 20.289062 29.519531 20.410156 29.34375 20.53125 29.160156 C 20.652344 29.160156 20.773438 29.160156 20.894531 29.160156 C 21.015625 28.9375 21.136719 28.714844 21.257812 28.484375 Z M 21.257812 28.484375 "/>
<path style=" stroke:none;fill-rule:nonzero;fill:rgb(4.313726%,90.196079%,97.647059%);fill-opacity:1;" d="M 20.714844 8.9375 C 20.714844 9.457031 20.507812 9.574219 20.066406 9.964844 C 19.867188 10.144531 19.867188 10.144531 19.664062 10.328125 C 19.464844 10.507812 19.464844 10.507812 19.261719 10.691406 C 18.660156 11.253906 18.070312 11.824219 17.492188 12.402344 C 17.136719 12.757812 16.773438 13.105469 16.40625 13.449219 C 16.316406 13.535156 16.226562 13.617188 16.132812 13.703125 C 15.953125 13.871094 15.773438 14.039062 15.59375 14.207031 C 15.105469 14.664062 15.105469 14.664062 14.710938 15.167969 C 14.496094 15.480469 14.210938 15.636719 13.84375 15.855469 C 13.136719 16.296875 12.796875 16.695312 12.367188 17.296875 C 12.085938 17.589844 11.789062 17.839844 11.460938 18.105469 C 11.339844 18.105469 11.222656 18.105469 11.097656 18.105469 C 11.050781 18.175781 11.007812 18.25 10.960938 18.324219 C 10.371094 19.15625 9.582031 19.851562 8.777344 20.574219 C 8.023438 21.238281 8.023438 21.238281 7.378906 21.964844 C 7.09375 22.296875 6.824219 22.472656 6.378906 22.6875 C 6.4375 21.945312 7.054688 21.507812 7.671875 20.96875 C 7.890625 20.777344 8.105469 20.582031 8.324219 20.390625 C 8.425781 20.296875 8.53125 20.203125 8.636719 20.109375 C 8.972656 19.8125 9.292969 19.507812 9.613281 19.199219 C 10.527344 18.316406 11.472656 17.449219 12.425781 16.589844 C 13.140625 15.941406 13.835938 15.285156 14.527344 14.625 C 15.167969 14.019531 15.824219 13.421875 16.484375 12.828125 C 16.960938 12.390625 17.425781 11.949219 17.890625 11.507812 C 18.808594 10.636719 19.753906 9.785156 20.714844 8.9375 Z M 20.714844 8.9375 "/>
<path style=" stroke:none;fill-rule:nonzero;fill:rgb(7.450981%,91.37255%,95.686275%);fill-opacity:1;" d="M 25.070312 4.894531 C 25.25 4.894531 25.429688 4.894531 25.613281 4.894531 C 25.515625 5.636719 25.324219 6.300781 24.996094 7.007812 C 24.953125 7.101562 24.90625 7.199219 24.863281 7.296875 C 24.722656 7.609375 24.578125 7.921875 24.433594 8.230469 C 24.234375 8.664062 24.039062 9.097656 23.839844 9.53125 C 23.792969 9.640625 23.742188 9.75 23.691406 9.863281 C 23.214844 10.910156 22.753906 11.960938 22.300781 13.015625 C 22.230469 13.175781 22.164062 13.339844 22.089844 13.503906 C 21.933594 13.871094 21.777344 14.234375 21.621094 14.601562 C 21.382812 14.554688 21.140625 14.511719 20.894531 14.464844 C 21.015625 14.464844 21.136719 14.464844 21.257812 14.464844 C 21.257812 14.152344 21.257812 13.84375 21.257812 13.523438 C 21.4375 13.523438 21.617188 13.523438 21.800781 13.523438 C 21.851562 13.347656 21.898438 13.175781 21.949219 13 C 22.125 12.410156 22.351562 11.839844 22.605469 11.265625 C 22.742188 10.925781 22.742188 10.925781 22.710938 10.421875 C 22.828125 10.421875 22.949219 10.421875 23.074219 10.421875 C 23.097656 10.347656 23.121094 10.269531 23.148438 10.191406 C 23.460938 9.28125 23.855469 8.398438 24.273438 7.515625 C 24.332031 7.394531 24.386719 7.273438 24.445312 7.148438 C 24.859375 6.28125 24.859375 6.28125 25.070312 5.972656 C 24.113281 6.328125 23.441406 6.890625 22.710938 7.457031 C 22.710938 6.871094 23.1875 6.589844 23.683594 6.175781 C 24.414062 5.558594 24.414062 5.558594 25.070312 4.894531 Z M 25.070312 4.894531 "/>
<path style=" stroke:none;fill-rule:nonzero;fill:rgb(3.529412%,80.000001%,97.647059%);fill-opacity:1;" d="M 11.824219 17.160156 C 11.882812 17.296875 11.941406 17.429688 12.003906 17.566406 C 11.765625 17.859375 11.765625 17.859375 11.460938 18.105469 C 11.339844 18.105469 11.222656 18.105469 11.097656 18.105469 C 11.050781 18.175781 11.007812 18.25 10.960938 18.324219 C 10.371094 19.15625 9.582031 19.851562 8.777344 20.574219 C 8.023438 21.238281 8.023438 21.238281 7.378906 21.964844 C 7.09375 22.296875 6.824219 22.472656 6.378906 22.6875 C 6.4375 21.945312 7.054688 21.507812 7.671875 20.96875 C 7.890625 20.777344 8.105469 20.582031 8.324219 20.390625 C 8.425781 20.296875 8.53125 20.203125 8.636719 20.109375 C 8.972656 19.8125 9.292969 19.507812 9.613281 19.199219 C 11.398438 17.476562 11.398438 17.476562 11.824219 17.160156 Z M 11.824219 17.160156 "/>
<path style=" stroke:none;fill-rule:nonzero;fill:rgb(17.254902%,35.686275%,93.333334%);fill-opacity:1;" d="M 27.972656 22.6875 C 27.972656 23.238281 27.589844 23.46875 27.121094 23.859375 C 26.9375 24.015625 26.753906 24.175781 26.570312 24.332031 C 26.425781 24.457031 26.425781 24.457031 26.277344 24.585938 C 25.765625 25.03125 25.269531 25.484375 24.773438 25.941406 C 24.574219 26.121094 24.378906 26.304688 24.179688 26.484375 C 24.085938 26.570312 23.992188 26.660156 23.894531 26.75 C 23.261719 27.328125 22.621094 27.90625 21.984375 28.484375 C 21.804688 28.441406 21.625 28.394531 21.441406 28.351562 C 21.582031 28.246094 21.722656 28.144531 21.871094 28.039062 C 22.503906 27.59375 22.503906 27.59375 22.710938 27.003906 C 22.855469 26.96875 23 26.933594 23.152344 26.902344 C 23.304688 26.84375 23.460938 26.789062 23.617188 26.734375 C 23.738281 26.464844 23.738281 26.464844 23.796875 26.191406 C 23.976562 26.105469 24.15625 26.015625 24.34375 25.921875 C 24.558594 25.648438 24.558594 25.648438 24.707031 25.382812 C 24.824219 25.382812 24.945312 25.382812 25.070312 25.382812 C 25.070312 25.207031 25.070312 25.027344 25.070312 24.84375 C 25.425781 24.660156 25.789062 24.480469 26.15625 24.304688 C 26.21875 24.171875 26.277344 24.039062 26.339844 23.902344 C 26.457031 23.855469 26.578125 23.8125 26.703125 23.765625 C 26.75 23.6875 26.800781 23.605469 26.847656 23.523438 C 27.128906 23.140625 27.503906 22.945312 27.972656 22.6875 Z M 27.972656 22.6875 "/>
<path style=" stroke:none;fill-rule:nonzero;fill:rgb(18.039216%,37.64706%,94.901961%);fill-opacity:1;" d="M 14.183594 25.921875 C 14.402344 26.414062 14.300781 26.617188 14.125 27.113281 C 14.074219 27.257812 14.023438 27.402344 13.96875 27.550781 C 13.816406 27.957031 13.648438 28.355469 13.457031 28.753906 C 13.089844 29.539062 12.78125 30.320312 12.519531 31.128906 C 12.359375 31.46875 12.191406 31.625 11.824219 31.855469 C 11.765625 31.089844 11.949219 30.511719 12.292969 29.796875 C 12.339844 29.695312 12.390625 29.589844 12.4375 29.484375 C 12.589844 29.160156 12.746094 28.835938 12.902344 28.511719 C 13.003906 28.289062 13.109375 28.070312 13.210938 27.847656 C 13.957031 26.257812 13.957031 26.257812 14.183594 25.921875 Z M 14.183594 25.921875 "/>
<path style=" stroke:none;fill-rule:nonzero;fill:rgb(20.784314%,27.058825%,90.980393%);fill-opacity:1;" d="M 21.257812 28.484375 C 21.4375 28.53125 21.617188 28.574219 21.800781 28.621094 C 20.761719 29.570312 19.710938 30.511719 18.640625 31.445312 C 18.402344 31.652344 18.164062 31.863281 17.933594 32.074219 C 17.390625 32.574219 16.90625 32.875 16.179688 33.203125 C 16.453125 32.742188 16.816406 32.398438 17.265625 32.023438 C 17.394531 31.914062 17.519531 31.808594 17.652344 31.695312 C 17.992188 31.449219 17.992188 31.449219 18.355469 31.449219 C 18.375 31.363281 18.394531 31.277344 18.410156 31.1875 C 18.453125 31.097656 18.496094 31.007812 18.535156 30.910156 C 18.714844 30.867188 18.894531 30.824219 19.082031 30.777344 C 19.28125 30.453125 19.28125 30.453125 19.445312 30.101562 C 19.5625 29.96875 19.683594 29.835938 19.808594 29.699219 C 19.925781 29.699219 20.046875 29.699219 20.167969 29.699219 C 20.289062 29.519531 20.410156 29.34375 20.53125 29.160156 C 20.652344 29.160156 20.773438 29.160156 20.894531 29.160156 C 21.015625 28.9375 21.136719 28.714844 21.257812 28.484375 Z M 21.257812 28.484375 "/>
<path style=" stroke:none;fill-rule:nonzero;fill:rgb(4.313726%,88.235295%,97.254902%);fill-opacity:1;" d="M 23.796875 8.535156 C 23.859375 8.535156 23.917969 8.535156 23.980469 8.535156 C 23.875 9.335938 23.648438 10.046875 23.304688 10.808594 C 23.257812 10.917969 23.207031 11.027344 23.160156 11.140625 C 23.007812 11.484375 22.851562 11.828125 22.699219 12.175781 C 22.59375 12.410156 22.492188 12.644531 22.386719 12.878906 C 22.132812 13.453125 21.878906 14.027344 21.621094 14.601562 C 21.382812 14.554688 21.140625 14.511719 20.894531 14.464844 C 21.015625 14.464844 21.136719 14.464844 21.257812 14.464844 C 21.257812 14.152344 21.257812 13.84375 21.257812 13.523438 C 21.4375 13.523438 21.617188 13.523438 21.800781 13.523438 C 21.851562 13.347656 21.898438 13.175781 21.949219 13 C 22.125 12.410156 22.351562 11.839844 22.605469 11.265625 C 22.742188 10.925781 22.742188 10.925781 22.710938 10.421875 C 22.828125 10.421875 22.949219 10.421875 23.074219 10.421875 C 23.109375 10.320312 23.148438 10.21875 23.183594 10.113281 C 23.234375 9.976562 23.285156 9.84375 23.332031 9.707031 C 23.382812 9.574219 23.429688 9.441406 23.480469 9.300781 C 23.578125 9.042969 23.683594 8.789062 23.796875 8.535156 Z M 23.796875 8.535156 "/>
<path style=" stroke:none;fill-rule:nonzero;fill:rgb(2.745098%,82.352942%,98.039216%);fill-opacity:1;" d="M 20.894531 14.734375 C 21.074219 14.78125 21.253906 14.824219 21.441406 14.871094 C 19.964844 18.664062 19.964844 18.664062 19.445312 19.046875 C 19.324219 19.183594 19.203125 19.316406 19.082031 19.453125 C 19.261719 18.453125 19.261719 18.453125 19.445312 17.96875 C 19.5625 17.96875 19.683594 17.96875 19.808594 17.96875 C 19.808594 17.570312 19.808594 17.167969 19.808594 16.757812 C 19.988281 16.757812 20.167969 16.757812 20.351562 16.757812 C 20.347656 16.65625 20.34375 16.558594 20.339844 16.453125 C 20.359375 15.839844 20.628906 15.3125 20.894531 14.734375 Z M 20.894531 14.734375 "/>
<path style=" stroke:none;fill-rule:nonzero;fill:rgb(29.019609%,21.960784%,85.09804%);fill-opacity:1;" d="M 11.277344 37.515625 C 11.339844 37.648438 11.398438 37.785156 11.460938 37.921875 C 11.164062 38.246094 11.164062 38.246094 10.734375 38.621094 C 10.585938 38.75 10.433594 38.882812 10.277344 39.015625 C 10.128906 39.144531 9.980469 39.273438 9.828125 39.402344 C 9.707031 39.515625 9.585938 39.625 9.460938 39.742188 C 9.355469 39.839844 9.246094 39.933594 9.136719 40.035156 C 8.992188 40.164062 8.992188 40.164062 8.847656 40.296875 C 8.558594 40.480469 8.558594 40.480469 7.832031 40.480469 C 7.890625 40.171875 7.953125 39.859375 8.011719 39.539062 C 8.074219 39.539062 8.132812 39.539062 8.195312 39.539062 C 8.253906 39.761719 8.3125 39.984375 8.375 40.210938 C 8.765625 39.972656 8.765625 39.972656 8.816406 39.671875 C 8.921875 39.402344 8.921875 39.402344 9.464844 39.132812 C 9.523438 39 9.585938 38.867188 9.644531 38.730469 C 10.191406 38.324219 10.734375 37.921875 11.277344 37.515625 Z M 11.277344 37.515625 "/>
<path style=" stroke:none;fill-rule:nonzero;fill:rgb(22.745098%,28.627452%,93.333334%);fill-opacity:1;" d="M 11.824219 31.179688 C 12.171875 31.957031 11.625 32.726562 11.277344 33.472656 C 11.207031 33.632812 11.136719 33.789062 11.0625 33.953125 C 11.015625 34.0625 10.964844 34.167969 10.917969 34.28125 C 10.796875 34.28125 10.675781 34.28125 10.554688 34.28125 C 10.660156 33.578125 10.875 32.945312 11.1875 32.277344 C 11.230469 32.183594 11.269531 32.09375 11.3125 32 C 11.617188 31.335938 11.617188 31.335938 11.824219 31.179688 Z M 11.824219 31.179688 "/>
<path style=" stroke:none;fill-rule:nonzero;fill:rgb(11.372549%,47.843137%,93.725491%);fill-opacity:1;" d="M 27.972656 22.6875 C 27.972656 23.269531 27.515625 23.550781 27.03125 23.96875 C 26.898438 24.085938 26.898438 24.085938 26.765625 24.207031 C 26.253906 24.652344 25.785156 24.976562 25.070312 25.25 C 25.070312 25.117188 25.070312 24.984375 25.070312 24.84375 C 25.429688 24.664062 25.792969 24.484375 26.15625 24.304688 C 26.21875 24.171875 26.277344 24.039062 26.339844 23.902344 C 26.457031 23.855469 26.578125 23.8125 26.703125 23.765625 C 26.75 23.6875 26.800781 23.605469 26.847656 23.523438 C 27.128906 23.140625 27.503906 22.945312 27.972656 22.6875 Z M 27.972656 22.6875 "/>
<path style=" stroke:none;fill-rule:nonzero;fill:rgb(26.666668%,23.137255%,94.117647%);fill-opacity:1;" d="M 10.371094 34.148438 C 10.550781 34.28125 10.730469 34.414062 10.917969 34.550781 C 10.773438 34.863281 10.628906 35.175781 10.484375 35.484375 C 10.445312 35.574219 10.40625 35.664062 10.363281 35.753906 C 10.050781 36.421875 10.050781 36.421875 9.644531 36.574219 C 9.738281 35.707031 9.960938 34.960938 10.371094 34.148438 Z M 10.371094 34.148438 "/>
<path style=" stroke:none;fill-rule:nonzero;fill:rgb(22.352941%,21.568628%,88.235295%);fill-opacity:1;" d="M 18.355469 31.316406 C 18.355469 31.863281 18.058594 32.035156 17.582031 32.433594 C 17.148438 32.75 16.699219 32.972656 16.179688 33.203125 C 16.449219 32.742188 16.8125 32.40625 17.265625 32.03125 C 17.394531 31.925781 17.519531 31.820312 17.652344 31.710938 C 17.992188 31.449219 17.992188 31.449219 18.355469 31.316406 Z M 18.355469 31.316406 "/>
<path style=" stroke:none;fill-rule:nonzero;fill:rgb(14.117648%,46.27451%,94.509804%);fill-opacity:1;" d="M 14.183594 25.921875 C 14.402344 26.417969 14.300781 26.636719 14.125 27.136719 C 14.078125 27.277344 14.03125 27.421875 13.980469 27.566406 C 13.820312 27.945312 13.820312 27.945312 13.457031 28.351562 C 13.191406 27.722656 13.386719 27.351562 13.71875 26.757812 C 13.804688 26.601562 13.890625 26.445312 13.976562 26.285156 C 14.042969 26.164062 14.113281 26.046875 14.183594 25.921875 Z M 14.183594 25.921875 "/>
<path style=" stroke:none;fill-rule:nonzero;fill:rgb(14.509805%,40.392157%,93.333334%);fill-opacity:1;" d="M 25.429688 24.980469 C 25.429688 25.519531 25.164062 25.675781 24.707031 26.082031 C 24.570312 26.207031 24.4375 26.328125 24.296875 26.453125 C 24.191406 26.542969 24.089844 26.636719 23.980469 26.734375 C 23.859375 26.6875 23.742188 26.644531 23.617188 26.597656 C 23.933594 26.074219 23.933594 26.074219 24.34375 25.921875 C 24.394531 25.839844 24.449219 25.757812 24.5 25.671875 C 24.742188 25.335938 25.011719 25.1875 25.429688 24.980469 Z M 25.429688 24.980469 "/>
<path style=" stroke:none;fill-rule:nonzero;fill:rgb(5.098039%,71.372551%,98.039216%);fill-opacity:1;" d="M 5.65625 23.09375 C 5.773438 23.183594 5.894531 23.269531 6.015625 23.363281 C 5.90625 23.394531 5.792969 23.429688 5.675781 23.464844 C 5.226562 23.660156 5.117188 23.816406 4.929688 24.171875 C 4.867188 23.992188 4.808594 23.816406 4.746094 23.632812 C 5.046875 23.453125 5.347656 23.277344 5.65625 23.09375 Z M 4.566406 24.171875 C 4.566406 24.304688 4.566406 24.4375 4.566406 24.574219 C 4.386719 24.640625 4.386719 24.640625 4.203125 24.710938 C 4.324219 24.53125 4.441406 24.355469 4.566406 24.171875 Z M 4.566406 24.171875 "/>
<path style=" stroke:none;fill-rule:nonzero;fill:rgb(33.333334%,21.568628%,96.862745%);fill-opacity:1;" d="M 8.195312 39.132812 C 8.554688 39.269531 8.554688 39.269531 8.921875 39.402344 C 8.863281 39.722656 8.863281 39.722656 8.738281 40.078125 C 8.558594 40.167969 8.378906 40.253906 8.195312 40.347656 C 8.195312 39.945312 8.195312 39.546875 8.195312 39.132812 Z M 8.195312 39.132812 "/>
<path style=" stroke:none;fill-rule:nonzero;fill:rgb(23.137255%,23.921569%,89.803922%);fill-opacity:1;" d="M 11.097656 32.796875 C 11.355469 33.371094 11.132812 33.703125 10.917969 34.28125 C 10.796875 34.28125 10.675781 34.28125 10.554688 34.28125 C 10.636719 33.734375 10.710938 33.273438 11.097656 32.796875 Z M 11.097656 32.796875 "/>
<path style=" stroke:none;fill-rule:nonzero;fill:rgb(7.450981%,91.37255%,96.470588%);fill-opacity:1;" d="M 22.347656 7.457031 C 22.347656 7.964844 22.167969 8.058594 21.710938 8.425781 C 21.535156 8.570312 21.535156 8.570312 21.355469 8.71875 C 21.261719 8.789062 21.171875 8.863281 21.078125 8.9375 C 21.078125 8.429688 21.257812 8.335938 21.710938 7.96875 C 21.828125 7.875 21.949219 7.777344 22.070312 7.675781 C 22.160156 7.605469 22.253906 7.53125 22.347656 7.457031 Z M 22.347656 7.457031 "/>
<path style=" stroke:none;fill-rule:nonzero;fill:rgb(27.058825%,23.529412%,94.901961%);fill-opacity:1;" d="M 17.265625 32.125 C 17.328125 32.257812 17.386719 32.390625 17.449219 32.527344 C 17.027344 32.75 16.609375 32.972656 16.179688 33.203125 C 16.441406 32.75 16.78125 32.460938 17.265625 32.125 Z M 17.265625 32.125 "/>
<path style=" stroke:none;fill-rule:nonzero;fill:rgb(18.82353%,85.490197%,89.019608%);fill-opacity:1;" d="M 25.070312 4.894531 C 25.25 4.894531 25.429688 4.894531 25.613281 4.894531 C 25.554688 5.25 25.492188 5.605469 25.429688 5.972656 C 25.371094 5.972656 25.3125 5.972656 25.25 5.972656 C 25.140625 5.601562 25.070312 5.277344 25.070312 4.894531 Z M 25.070312 4.894531 "/>
<path style=" stroke:none;fill-rule:nonzero;fill:rgb(13.725491%,72.941178%,97.647059%);fill-opacity:1;" d="M 26.519531 20.128906 C 27.246094 20.261719 27.246094 20.261719 27.246094 20.261719 Z M 26.519531 20.128906 "/>
<path style=" stroke:none;fill-rule:nonzero;fill:rgb(12.54902%,72.941178%,97.647059%);fill-opacity:1;" d="M 25.070312 20.128906 C 25.613281 20.261719 25.613281 20.261719 25.613281 20.261719 Z M 25.070312 20.128906 "/>
<path style=" stroke:none;fill-rule:nonzero;fill:rgb(17.647059%,65.098041%,98.431373%);fill-opacity:1;" d="M 13.636719 25.652344 C 14 25.789062 14 25.789062 14 25.789062 Z M 13.636719 25.652344 "/>
</g>
</svg>
